<?xml version="1.0" encoding="utf-8"?>
<!-- Generator: Adobe Illustrator 25.2.3, SVG Export Plug-In . SVG Version: 6.00 Build 0)  -->
<svg version="1.1" id="Layer_1" xmlns="http://www.w3.org/2000/svg" xmlns:xlink="http://www.w3.org/1999/xlink" x="0px" y="0px"
	 viewBox="0 0 133.2 113.9" style="enable-background:new 0 0 133.2 113.9;" xml:space="preserve">
<style type="text/css">
	.st0{fill:#2190CB;}
	.st1{fill:none;stroke:#FFFFFF;stroke-width:2.226;stroke-linecap:round;stroke-linejoin:round;}
</style>
<g id="Group_52" transform="translate(-665.685 -1882.097)">
	<path id="Polygon_2_copy_7" class="st0" d="M798.9,1882.1L665.7,1913l97.9,83L798.9,1882.1z"/>
	<g id="Vector_Smart_Object">
		<g id="Vector_Smart_Object-2" transform="translate(-239.913 -348.358)">
			<g id="Group_27">
				<path id="Path_70" class="st1" d="M1003.5,2286L1003.5,2286c1.6,0.6,3.4-0.2,4-1.8c0.1-0.2,0.1-0.5,0.2-0.7c0.3-2,0.3-4.1,0-6.2
					c-0.2-1.7-1.7-2.9-3.4-2.7c-0.2,0-0.5,0.1-0.7,0.2l0,0c-1.5,0.5-3.2-0.2-3.9-1.7c-0.5-1.1-1.1-2.1-1.8-3.1
					c-1-1.3-0.8-3.2,0.5-4.2l0,0c1.3-1.1,1.5-3.1,0.4-4.4c-0.2-0.2-0.3-0.3-0.5-0.5c-1.6-1.2-3.4-2.3-5.3-3.1c-1.6-0.7-3.4,0-4,1.6
					c-0.1,0.2-0.2,0.5-0.2,0.7l0,0c-0.3,1.6-1.8,2.7-3.4,2.5c-1.2-0.1-2.4-0.1-3.5,0c-1.6,0.2-3.2-0.9-3.4-2.5l0,0
					c-0.3-1.7-1.9-2.8-3.5-2.5c-0.2,0-0.5,0.1-0.7,0.2c-1.9,0.8-3.6,1.8-5.3,3.1c-1.4,1-1.6,3-0.6,4.4c0.1,0.2,0.3,0.4,0.5,0.5l0,0
					c1.3,1.1,1.5,2.9,0.5,4.2c-0.7,1-1.3,2-1.8,3.1c-0.6,1.5-2.3,2.3-3.9,1.7l0,0c-1.6-0.6-3.4,0.2-3.9,1.8
					c-0.1,0.2-0.1,0.5-0.2,0.7c-0.3,2-0.3,4.1,0,6.2c0.2,1.7,1.7,2.9,3.4,2.7c0.2,0,0.5-0.1,0.7-0.2l0,0c1.5-0.5,3.2,0.2,3.9,1.7
					c0.5,1.1,1.1,2.1,1.8,3.1c1,1.3,0.8,3.2-0.5,4.2l0,0c-1.3,1.1-1.5,3.1-0.4,4.4c0.2,0.2,0.3,0.3,0.5,0.5c1.6,1.2,3.4,2.3,5.3,3.1
					c1.6,0.7,3.4,0,4-1.6c0.1-0.2,0.2-0.5,0.2-0.7l0,0c0.3-1.6,1.8-2.7,3.4-2.5c1.2,0.1,2.4,0.1,3.5,0c1.6-0.2,3.2,0.9,3.4,2.5l0,0
					c0.3,1.7,1.9,2.8,3.5,2.5c0.2,0,0.5-0.1,0.7-0.2c1.9-0.8,3.6-1.8,5.3-3.1c1.4-1,1.6-3,0.6-4.4c-0.1-0.2-0.3-0.4-0.5-0.5l0,0
					c-1.3-1.1-1.5-2.9-0.5-4.2c0.7-1,1.3-2,1.8-3.1C1000.2,2286.2,1001.9,2285.4,1003.5,2286z"/>
				<ellipse id="Ellipse_5" class="st1" cx="983.4" cy="2280.4" rx="11.1" ry="11.2"/>
				<g id="Group_26">
					<ellipse id="Ellipse_6" class="st1" cx="983.4" cy="2278.1" rx="4.4" ry="4.5"/>
					<path id="Path_71" class="st1" d="M983.4,2291.5c2.9,0,5.8-1.2,7.8-3.3c-1.4-4.3-6.1-6.7-10.4-5.3c-2.5,0.8-4.4,2.8-5.3,5.3
						C977.6,2290.4,980.5,2291.5,983.4,2291.5z"/>
				</g>
			</g>
		</g>
	</g>
</g>
</svg>
