<?xml version="1.0" encoding="utf-8"?>
<!-- Generator: Adobe Illustrator 25.2.3, SVG Export Plug-In . SVG Version: 6.00 Build 0)  -->
<svg version="1.1" id="Layer_1" xmlns="http://www.w3.org/2000/svg" xmlns:xlink="http://www.w3.org/1999/xlink" x="0px" y="0px"
	 viewBox="0 0 133.2 113.9" style="enable-background:new 0 0 133.2 113.9;" xml:space="preserve">
<style type="text/css">
	.st0{fill:#2190CB;}
	.st1{fill:none;stroke:#FFFFFF;stroke-width:2.5;stroke-linecap:round;stroke-linejoin:round;}
</style>
<g id="Group_53" transform="translate(-177.685 -1882.097)">
	<path id="Polygon_2_copy_7" class="st0" d="M310.9,1882.1L177.7,1913l97.9,83L310.9,1882.1z"/>
	<g id="Vector_Smart_Object">
		<g id="Vector_Smart_Object-2" transform="translate(-1694 -5721.75)">
			<g id="Group_31">
				<g id="Group_30">
					<path id="Path_74" class="st1" d="M1936.9,7637.6c-1.1,0.1-2.2,0.5-3.1,1.1c-4.8,0-5.4,2.1-5.4,4.2c0,0.8,0.3,3,0.3,3h-0.1
						c-0.7,0-1.2,0.5-1.2,1.2c0,0,0,0.1,0,0.1l0.3,2.4c0.1,0.6,0.6,1,1.2,1h0.2c0.2,1.8,1,3.6,2.3,4.8l-0.6,2.3l-4.9,1.2
						c-2.7,0.7-4.6,3.1-4.6,5.9l0,0h7.3"/>
					<path id="Path_75" class="st1" d="M1971.4,7665h7.3l0,0c0-2.8-1.9-5.3-4.6-5.9l-4.9-1.2l-0.6-2.2c1.4-1.3,2.3-3,2.4-4.9h0.1
						c0.6,0,1.1-0.4,1.2-1l0.3-2.4c0.1-0.7-0.4-1.2-1-1.3c0,0-0.1,0-0.1,0l0.1-3l0.6-0.6c0.8-0.8,0.8-1.8,0-3
						c-0.9-1.3-2.5-1.9-4-1.8c-0.9,0-1.9,0.1-2.8,0.4"/>
				</g>
				<path id="Path_76" class="st1" d="M1962.4,7664.4l-6.7-1.7l-0.8-3.1c1.9-1.7,3.1-4.1,3.3-6.7h0.1c0.8,0,1.5-0.6,1.6-1.4l0.4-3.3
					c0.1-0.9-0.5-1.7-1.4-1.8c-0.1,0-0.1,0-0.2,0l0.2-4.1l0.8-0.8c1.1-1.1,1.1-2.5,0-4.1s-2.9-2.4-5.5-2.4c-2.1-0.1-4.2,0.5-5.9,1.6
					c-6.6,0.1-7.3,2.8-7.3,5.7c0,1,0.4,4.1,0.4,4.1h-0.2c-0.9,0-1.6,0.7-1.6,1.6c0,0.1,0,0.1,0,0.2l0.4,3.3c0.1,0.8,0.8,1.4,1.6,1.4
					h0.3c0.2,2.5,1.4,4.8,3.2,6.6l-0.8,3.2l-6.7,1.7c-3.7,0.9-6.3,4.3-6.3,8.1l0,0h37.5l0,0
					C1968.8,7668.7,1966.1,7665.3,1962.4,7664.4z"/>
			</g>
		</g>
	</g>
</g>
</svg>
