<?xml version="1.0" encoding="utf-8"?>
<!-- Generator: Adobe Illustrator 25.2.3, SVG Export Plug-In . SVG Version: 6.00 Build 0)  -->
<svg version="1.1" id="Layer_1" xmlns="http://www.w3.org/2000/svg" xmlns:xlink="http://www.w3.org/1999/xlink" x="0px" y="0px"
	 viewBox="0 0 133.2 113.9" style="enable-background:new 0 0 133.2 113.9;" xml:space="preserve">
<style type="text/css">
	.st0{fill:#2190CB;}
	.st1{fill:none;stroke:#FFFFFF;stroke-width:2.097;stroke-linecap:round;stroke-linejoin:round;}
	.st2{fill:none;stroke:#FFFFFF;stroke-width:2.083;stroke-linecap:round;stroke-linejoin:round;}
</style>
<g id="Group_48" transform="translate(-665.685 -1563.097)">
	<path id="Polygon_2_copy_3" class="st0" d="M798.9,1563.1L665.7,1594l97.9,83L798.9,1563.1z"/>
	<g id="Vector_Smart_Object" transform="translate(-1510.667 1434.875)">
		<g id="Group_17">
			<g id="Group_16">
				<path id="Path_46" class="st1" d="M2254.7,172.9l5,9.7l10.8,1.4l-7.9,7.6l2.2,10.4l-10.1-4.9l-10.1,4.9l2.2-10.4l-7.9-7.6
					l10.8-1.4L2254.7,172.9z"/>
			</g>
			<path id="Path_47" class="st1" d="M2236.7,154.2v7.3c0,1.9,1.2,3.5,3,4l8.2,2.4c4.4,1.3,9,1.3,13.3,0l8.2-2.4c1.8-0.5,3-2.1,3-4
				v-7.3H2236.7z"/>
			<line id="Line_23" class="st2" x1="2247.3" y1="154.2" x2="2247.3" y2="166.7"/>
			<line id="Line_24" class="st2" x1="2262.1" y1="154.2" x2="2262.1" y2="166.7"/>
			<ellipse id="Ellipse_1" class="st1" cx="2254.7" cy="170.8" rx="2.1" ry="2.1"/>
		</g>
	</g>
</g>
</svg>
