<?xml version="1.0" encoding="utf-8"?>
<!-- Generator: Adobe Illustrator 25.2.3, SVG Export Plug-In . SVG Version: 6.00 Build 0)  -->
<svg version="1.1" id="Layer_1" xmlns="http://www.w3.org/2000/svg" xmlns:xlink="http://www.w3.org/1999/xlink" x="0px" y="0px"
	 viewBox="0 0 133.2 113.9" style="enable-background:new 0 0 133.2 113.9;" xml:space="preserve">
<style type="text/css">
	.st0{fill:#2190CB;}
	.st1{fill:none;stroke:#FFFFFF;stroke-width:2.087;stroke-linecap:round;stroke-linejoin:round;}
	.st2{fill:none;stroke:#FFFFFF;stroke-width:2.0867;stroke-linecap:round;stroke-linejoin:round;stroke-miterlimit:3.9994;}
</style>
<g id="Group_54" transform="translate(-1650.685 -1563.097)">
	<path id="Polygon_2_copy_6" class="st0" d="M1783.9,1563.1l-133.2,30.9l97.9,83L1783.9,1563.1z"/>
	<g id="Vector_Smart_Object">
		<g id="Vector_Smart_Object-2" transform="translate(1505.383 -515.192)">
			<g id="Group_24">
				<path id="Path_62" class="st1" d="M203,2149.4l1.2,1.2c1.8,1.8,4.7,1.8,6.5,0c0.1-0.1,0.2-0.2,0.3-0.3l17.7-21.2l-4.2-4.2
					l-21.2,17.6c-1.9,1.6-2.2,4.5-0.6,6.5C202.8,2149.2,202.9,2149.3,203,2149.4z"/>
				
					<rect id="Rectangle_5" x="224.4" y="2113" transform="matrix(0.7071 -0.7071 0.7071 0.7071 -1432.5101 785.4058)" class="st2" width="14.8" height="17.7"/>
				<path id="Path_63" class="st1" d="M242.8,2123.4l-9.5,9.5c-1.4,1.4-1.4,3.7,0,5.1c0,0,0,0,0,0l0,0c2,2,5.3,2,7.4,0l7.2-7.2
					c2-2,2-5.3,0-7.4c0,0,0,0,0,0l0,0C246.5,2122,244.2,2122,242.8,2123.4z"/>
				<path id="Path_64" class="st1" d="M230.3,2110.9l-9.5,9.5c-1.4,1.4-3.7,1.4-5.1,0l0,0c-2-2-2-5.3,0-7.4c0,0,0,0,0,0l7.2-7.2
					c2-2,5.3-2,7.4,0l0,0C231.7,2107.2,231.7,2109.5,230.3,2110.9z"/>
				<path id="Path_65" class="st1" d="M245.4,2148h-12.3c-2.3,0-4.2,1.9-4.2,4.2c0,0,0,0,0,0h20.6
					C249.6,2149.8,247.7,2148,245.4,2148C245.4,2148,245.4,2148,245.4,2148z"/>
			</g>
		</g>
	</g>
</g>
</svg>
