<?xml version="1.0" encoding="utf-8"?>
<!-- Generator: Adobe Illustrator 25.2.3, SVG Export Plug-In . SVG Version: 6.00 Build 0)  -->
<svg version="1.1" id="Layer_1" xmlns="http://www.w3.org/2000/svg" xmlns:xlink="http://www.w3.org/1999/xlink" x="0px" y="0px"
	 viewBox="0 0 133.2 113.9" style="enable-background:new 0 0 133.2 113.9;" xml:space="preserve">
<style type="text/css">
	.st0{fill:#2190CB;}
	.st1{fill:none;stroke:#FFFFFF;stroke-width:2.209;stroke-linecap:round;stroke-linejoin:round;}
	.st2{fill:none;stroke:#FFFFFF;stroke-width:2.205;stroke-linecap:round;stroke-linejoin:round;}
</style>
<g id="Group_51" transform="translate(-1158.685 -1882.097)">
	<path id="Polygon_2_copy_7" class="st0" d="M1291.9,1882.1l-133.2,30.9l97.9,83L1291.9,1882.1z"/>
	<g id="Vector_Smart_Object">
		<g id="Vector_Smart_Object-2" transform="translate(1100.173 -1814.369)">
			<g id="Group_34">
				<path id="Path_80" class="st1" d="M130.1,3746.8l22.7,22.8c0.9,0.9,2.3,0.9,3.1,0c0,0,0,0,0,0l0.2-0.2c0.9-0.9,0.9-2.3,0-3.1
					l-26-26.1"/>
				<path id="Path_81" class="st1" d="M113.5,3722.5l1.1,7.7l-7.7,3.3l7.7,3.3l-1.1,7.7l6.6-4.4l6.6,4.4l-1.1-7.7l7.7-3.3l-7.7-3.3
					l1.1-7.7l-6.6,4.4L113.5,3722.5z"/>
				<polygon id="Rectangle_7" class="st2" points="120.2,3722.5 120.2,3722.5 120.2,3722.5 				"/>
				<polygon id="Rectangle_8" class="st2" points="131.2,3726.9 131.2,3726.9 131.2,3726.9 				"/>
				<polygon id="Rectangle_9" class="st2" points="109.1,3726.9 109.1,3726.9 109.1,3726.9 				"/>
				<polygon id="Rectangle_10" class="st2" points="120.2,3744.6 120.2,3744.6 120.2,3744.6 				"/>
				<polygon id="Rectangle_11" class="st2" points="109.1,3740.2 109.1,3740.2 109.1,3740.2 				"/>
				<line id="Line_27" class="st1" x1="145.5" y1="3756.8" x2="143.3" y2="3759"/>
			</g>
		</g>
	</g>
</g>
</svg>
