<svg xmlns="http://www.w3.org/2000/svg" width="89.006" height="88.998" viewBox="0 0 89.006 88.998">
  <g id="Vector_Smart_Object" data-name="Vector Smart Object" transform="translate(-3779.76 -11091.767)">
    <g id="Group_12" data-name="Group 12">
      <path id="Path_56" data-name="Path 56" d="M3803.574,11179.451l2.2-29.791h1.425a4.134,4.134,0,0,0,3.847-4.783l-2.486-21.811c-.484-4.259-3.783-7.454-7.694-7.454h-9.575c-3.911,0-7.21,3.2-7.693,7.454l-2.486,21.811a4.134,4.134,0,0,0,3.847,4.783h1.425l2.2,29.791Z" fill="none" stroke="#fff" stroke-linecap="round" stroke-linejoin="round" stroke-width="2.627"/>
      <ellipse id="Ellipse_21" data-name="Ellipse 21" cx="7.498" cy="7.511" rx="7.498" ry="7.511" transform="translate(3788.577 11093.08)" fill="none" stroke="#fff" stroke-linecap="round" stroke-linejoin="round" stroke-width="2.627"/>
      <path id="Path_57" data-name="Path 57" d="M3811.387,11175.475a5.2,5.2,0,0,0,6.021-4.345,5.239,5.239,0,0,1,5.808-4.367,27.926,27.926,0,0,0,5.991,0,5.245,5.245,0,0,1,5.811,4.367,5.189,5.189,0,0,0,7.2,3.988,40.784,40.784,0,0,0,8.889-5.273,5.431,5.431,0,0,0,.222-8.389h0a5.463,5.463,0,0,1-.795-7.326,30.935,30.935,0,0,0,3.014-5.385,5.212,5.212,0,0,1,6.573-2.956l.041.016a5.2,5.2,0,0,0,6.962-4.375,42.814,42.814,0,0,0,0-10.612,5.2,5.2,0,0,0-6.962-4.375l-.041.015a5.216,5.216,0,0,1-6.573-2.959,31.052,31.052,0,0,0-3.014-5.382,5.462,5.462,0,0,1,.795-7.326l0,0a5.433,5.433,0,0,0-.222-8.391,40.9,40.9,0,0,0-8.889-5.272,5.191,5.191,0,0,0-7.2,3.988,5.242,5.242,0,0,1-5.811,4.368,27.759,27.759,0,0,0-5.991,0,5.236,5.236,0,0,1-5.808-4.368,5.171,5.171,0,0,0-6.816-4.1" fill="none" stroke="#fff" stroke-linecap="round" stroke-linejoin="round" stroke-width="2.627"/>
      <path id="Path_58" data-name="Path 58" d="M3816.227,11124.14a16.935,16.935,0,1,1,1.526,25.51" fill="none" stroke="#fff" stroke-linecap="round" stroke-linejoin="round" stroke-width="2.627"/>
    </g>
  </g>
</svg>
