<svg xmlns="http://www.w3.org/2000/svg" width="133.179" height="113.906" viewBox="0 0 133.179 113.906">
  <g id="Group_58" data-name="Group 58" transform="translate(-256.685 -3707.097)">
    <path id="Polygon_2_copy_4" data-name="Polygon 2 copy 4" d="M389.865,3707.1l-133.179,30.893L354.614,3821Z" fill="#2190cb"/>
    <g id="Vector_Smart_Object" data-name="Vector Smart Object" transform="translate(312 3732)">
      <g id="Group_6" data-name="Group 6">
        <line id="Line_19" data-name="Line 19" x2="4.79" transform="translate(10.625 13.6)" fill="none" stroke="#fff" stroke-linecap="round" stroke-linejoin="round" stroke-width="1.7"/>
        <line id="Line_20" data-name="Line 20" x2="6.8" transform="translate(18.7 13.6)" fill="none" stroke="#fff" stroke-linecap="round" stroke-linejoin="round" stroke-width="1.7"/>
        <line id="Line_21" data-name="Line 21" x2="5.525" transform="translate(28.475 13.6)" fill="none" stroke="#fff" stroke-linecap="round" stroke-linejoin="round" stroke-width="1.7"/>
        <line id="Line_22" data-name="Line 22" y2="19.55" transform="translate(25.5 4.25)" fill="none" stroke="#fff" stroke-linecap="round" stroke-linejoin="round" stroke-width="1.7"/>
        <line id="Line_23" data-name="Line 23" y2="19.55" transform="translate(25.5 27.2)" fill="none" stroke="#fff" stroke-linecap="round" stroke-linejoin="round" stroke-width="1.7"/>
        <circle id="Ellipse_5" data-name="Ellipse 5" cx="1.7" cy="1.7" r="1.7" transform="translate(0.85 23.8)" fill="none" stroke="#fff" stroke-linecap="round" stroke-linejoin="round" stroke-width="1.7"/>
        <circle id="Ellipse_6" data-name="Ellipse 6" cx="1.7" cy="1.7" r="1.7" transform="translate(4.25 11.9)" fill="none" stroke="#fff" stroke-linecap="round" stroke-linejoin="round" stroke-width="1.7"/>
        <circle id="Ellipse_7" data-name="Ellipse 7" cx="1.7" cy="1.7" r="1.7" transform="translate(46.75 23.8)" fill="none" stroke="#fff" stroke-linecap="round" stroke-linejoin="round" stroke-width="1.7"/>
        <circle id="Ellipse_8" data-name="Ellipse 8" cx="1.7" cy="1.7" r="1.7" transform="translate(23.8 0.85)" fill="none" stroke="#fff" stroke-linecap="round" stroke-linejoin="round" stroke-width="1.7"/>
        <circle id="Ellipse_9" data-name="Ellipse 9" cx="1.7" cy="1.7" r="1.7" transform="translate(23.8 46.75)" fill="none" stroke="#fff" stroke-linecap="round" stroke-linejoin="round" stroke-width="1.7"/>
        <path id="Path_36" data-name="Path 36" d="M27.193,48.381A22.951,22.951,0,0,0,47.96,30.2" fill="none" stroke="#fff" stroke-linecap="round" stroke-linejoin="round" stroke-width="1.7"/>
        <path id="Path_37" data-name="Path 37" d="M2.619,27.193a22.953,22.953,0,0,0,17.735,20.67" fill="none" stroke="#fff" stroke-linecap="round" stroke-linejoin="round" stroke-width="1.7"/>
        <path id="Path_38" data-name="Path 38" d="M23.807,2.619a22.881,22.881,0,0,0-15.2,7.354" fill="none" stroke="#fff" stroke-linecap="round" stroke-linejoin="round" stroke-width="1.7"/>
        <path id="Path_39" data-name="Path 39" d="M48.381,23.807A22.955,22.955,0,0,0,30.629,3.132" fill="none" stroke="#fff" stroke-linecap="round" stroke-linejoin="round" stroke-width="1.7"/>
        <path id="Path_40" data-name="Path 40" d="M24.069,3.461A26.578,26.578,0,0,0,12.75,25.5c0,13.415,7.935,19.944,11.283,22.1" fill="none" stroke="#fff" stroke-linecap="round" stroke-linejoin="round" stroke-width="1.7"/>
        <path id="Path_41" data-name="Path 41" d="M34.965,12.028a24.458,24.458,0,0,0-8-8.633" fill="none" stroke="#fff" stroke-linecap="round" stroke-linejoin="round" stroke-width="1.7"/>
        <path id="Path_42" data-name="Path 42" d="M36.31,35.772A27.14,27.14,0,0,0,38.25,25.5a28.558,28.558,0,0,0-1.823-10.333" fill="none" stroke="#fff" stroke-linecap="round" stroke-linejoin="round" stroke-width="1.7"/>
        <path id="Path_43" data-name="Path 43" d="M26.931,47.539a27.159,27.159,0,0,0,7.868-8.65" fill="none" stroke="#fff" stroke-linecap="round" stroke-linejoin="round" stroke-width="1.7"/>
        <line id="Line_24" data-name="Line 24" x2="5.1" transform="translate(7.65 25.5)" fill="none" stroke="#fff" stroke-linecap="round" stroke-linejoin="round" stroke-width="1.7"/>
        <line id="Line_25" data-name="Line 25" x2="7.65" transform="translate(16.15 25.5)" fill="none" stroke="#fff" stroke-linecap="round" stroke-linejoin="round" stroke-width="1.7"/>
        <line id="Line_26" data-name="Line 26" x2="7.65" transform="translate(30.6 25.5)" fill="none" stroke="#fff" stroke-linecap="round" stroke-linejoin="round" stroke-width="1.7"/>
        <line id="Line_27" data-name="Line 27" x2="5.95" transform="translate(40.8 25.5)" fill="none" stroke="#fff" stroke-linecap="round" stroke-linejoin="round" stroke-width="1.7"/>
        <circle id="Ellipse_10" data-name="Ellipse 10" cx="1.7" cy="1.7" r="1.7" transform="translate(34 35.7)" fill="none" stroke="#fff" stroke-linecap="round" stroke-linejoin="round" stroke-width="1.7"/>
        <path id="Path_44" data-name="Path 44" d="M5.044,15.1a22.77,22.77,0,0,0-2.006,5.705" fill="none" stroke="#fff" stroke-linecap="round" stroke-linejoin="round" stroke-width="1.7"/>
        <circle id="Ellipse_11" data-name="Ellipse 11" cx="1.7" cy="1.7" r="1.7" transform="translate(23.8 23.8)" fill="none" stroke="#fff" stroke-linecap="round" stroke-linejoin="round" stroke-width="1.7"/>
        <circle id="Ellipse_12" data-name="Ellipse 12" cx="1.7" cy="1.7" r="1.7" transform="translate(34 11.9)" fill="none" stroke="#fff" stroke-linecap="round" stroke-linejoin="round" stroke-width="1.7"/>
        <line id="Line_28" data-name="Line 28" x2="4.658" transform="translate(40.392 13.6)" fill="none" stroke="#fff" stroke-linecap="round" stroke-linejoin="round" stroke-width="1.7"/>
        <line id="Line_29" data-name="Line 29" x2="4.79" transform="translate(10.625 37.4)" fill="none" stroke="#fff" stroke-linecap="round" stroke-linejoin="round" stroke-width="1.7"/>
        <line id="Line_30" data-name="Line 30" x2="6.8" transform="translate(18.7 37.4)" fill="none" stroke="#fff" stroke-linecap="round" stroke-linejoin="round" stroke-width="1.7"/>
        <line id="Line_31" data-name="Line 31" x2="5.525" transform="translate(28.475 37.4)" fill="none" stroke="#fff" stroke-linecap="round" stroke-linejoin="round" stroke-width="1.7"/>
        <line id="Line_32" data-name="Line 32" x2="4.658" transform="translate(40.392 37.4)" fill="none" stroke="#fff" stroke-linecap="round" stroke-linejoin="round" stroke-width="1.7"/>
      </g>
    </g>
  </g>
</svg>
