<?xml version="1.0" encoding="utf-8"?>
<!-- Generator: Adobe Illustrator 25.2.3, SVG Export Plug-In . SVG Version: 6.00 Build 0)  -->
<svg version="1.1" id="Layer_1" xmlns="http://www.w3.org/2000/svg" xmlns:xlink="http://www.w3.org/1999/xlink" x="0px" y="0px"
	 viewBox="0 0 133.2 113.9" style="enable-background:new 0 0 133.2 113.9;" xml:space="preserve">
<style type="text/css">
	.st0{fill:#2190CB;}
	.st1{fill:none;stroke:#FFFFFF;stroke-width:2;stroke-linecap:round;stroke-linejoin:round;}
</style>
<g id="Group_49" transform="translate(-177.685 -1563.097)">
	<path id="Polygon_2_copy_4" class="st0" d="M310.9,1563.1L177.7,1594l97.9,83L310.9,1563.1z"/>
	<g id="Vector_Smart_Object">
		<g id="Vector_Smart_Object-2" transform="translate(41 -43)">
			<g id="brifcase">
				<path id="Rectangle_3" class="st1" d="M195,1643h42c1.1,0,2,0.9,2,2v28c0,1.1-0.9,2-2,2h-42c-1.1,0-2-0.9-2-2v-28
					C193,1643.9,193.9,1643,195,1643z"/>
				<path id="Path_50" class="st1" d="M221,1637h-10c-1.1,0-2,0.9-2,2v4h14v-4C223,1637.9,222.1,1637,221,1637z"/>
				<path id="Path_51" class="st1" d="M193,1655l15.9,4.2c4.6,1.2,9.5,1.2,14.1,0l15.9-4.2"/>
				<circle id="Ellipse_3" class="st1" cx="216" cy="1654" r="3"/>
			</g>
		</g>
	</g>
</g>
</svg>
