<?xml version="1.0" encoding="utf-8"?>
<!-- Generator: Adobe Illustrator 25.2.3, SVG Export Plug-In . SVG Version: 6.00 Build 0)  -->
<svg version="1.1" id="Layer_1" xmlns="http://www.w3.org/2000/svg" xmlns:xlink="http://www.w3.org/1999/xlink" x="0px" y="0px"
	 viewBox="0 0 133.2 113.9" style="enable-background:new 0 0 133.2 113.9;" xml:space="preserve">
<style type="text/css">
	.st0{fill:#2190CB;}
	.st1{fill:none;stroke:#FFFFFF;stroke-width:2.172;stroke-linecap:round;stroke-linejoin:round;}
</style>
<g id="Group_47" transform="translate(-1158.685 -1563.097)">
	<path id="Polygon_2_copy_5" class="st0" d="M1291.9,1563.1l-133.2,30.9l97.9,83L1291.9,1563.1z"/>
	<g id="Vector_Smart_Object" transform="translate(-139 -5367.346)">
		<g id="Group_21">
			<path id="Path_54" class="st1" d="M1400.8,6986.9L1400.8,6986.9c0-3.1-2.1-5.8-5.1-6.6l-5.4-1.4l-0.6-2.5
				c1.5-1.4,2.5-3.4,2.7-5.5h0.1c0.7,0,1.2-0.5,1.3-1.2l0.3-2.6c0.1-0.7-0.4-1.4-1.1-1.5c0,0-0.1,0-0.1,0l0.2-3.3l0.7-0.7
				c0.9-0.9,0.9-2,0-3.3s-2.4-2-4.4-2c-1.7-0.1-3.4,0.4-4.8,1.3c-5.3,0.1-5.9,2.3-5.9,4.6c0,0.8,0.3,3.3,0.3,3.3h-0.1
				c-0.7,0-1.3,0.6-1.3,1.3c0,0.1,0,0.1,0,0.2l0.3,2.6c0.1,0.7,0.6,1.2,1.3,1.2h0.2c0.2,2,1.1,3.9,2.6,5.4l-0.6,2.6l-5.4,1.4
				c-0.9,0.2-1.8,0.7-2.5,1.2"/>
			<g id="Group_20">
				<path id="Path_55" class="st1" d="M1353.1,7000h6.5c0,0,3.8-11.8,4.3-17.4c-1.7-1.6-10.8-2.2-10.8-2.2V7000z"/>
				<path id="Path_56" class="st1" d="M1387.8,6994.5l8.3-2.1c2.8-0.7,5.6,0.6,6.9,3.2l0,0l-11.9,5.4c-9,3.7-9.8,3.8-14.1,2.2
					l-16.2-5.4"/>
				<path id="Path_57" class="st1" d="M1363.9,6984.7l19.5,4.4c2.9,0.7,4.3,2.1,4.3,5.1v0.3l-2.9,0.7c-0.9,0.2-1.9,0.3-2.9,0.1
					l-9.4-1.9"/>
			</g>
		</g>
	</g>
</g>
</svg>
