<svg xmlns="http://www.w3.org/2000/svg" width="133.179" height="113.906" viewBox="0 0 133.179 113.906">
  <g id="Group_25" data-name="Group 25" transform="translate(-174.685 -1235.097)">
    <path id="Polygon_2_copy_4" data-name="Polygon 2 copy 4" d="M307.864,1235.1,174.685,1265.99,272.614,1349Z" fill="#202020"/>
    <g id="Vector_Smart_Object" data-name="Vector Smart Object" transform="translate(-1842.167 1004.875)">
      <g id="Group_6" data-name="Group 6">
        <path id="Path_33" data-name="Path 33" d="M2114.139,271.875c0,1.492-2.214,2.671-2.578,4.046-.376,1.425.95,3.565.239,4.81-.722,1.265-3.219,1.167-4.232,2.192s-.915,3.558-2.163,4.29c-1.231.721-3.34-.621-4.746-.242-1.359.369-2.52,2.612-3.992,2.612s-2.635-2.244-3.992-2.612c-1.406-.381-3.517.962-4.746.242-1.248-.731-1.151-3.262-2.162-4.29s-3.511-.927-4.232-2.192c-.711-1.248.613-3.385.239-4.81-.364-1.377-2.578-2.554-2.578-4.046s2.214-2.671,2.578-4.046c.376-1.425-.95-3.565-.239-4.81.721-1.265,3.219-1.167,4.232-2.192s.915-3.558,2.162-4.29c1.231-.721,3.34.621,4.746.242,1.359-.369,2.52-2.612,3.992-2.612s2.635,2.244,3.992,2.612c1.406.381,3.517-.962,4.746-.242,1.248.731,1.151,3.262,2.163,4.29s3.511.927,4.232,2.192c.711,1.248-.613,3.385-.239,4.81C2111.925,269.206,2114.139,270.383,2114.139,271.875Z" fill="none" stroke="#fff" stroke-linecap="round" stroke-linejoin="round" stroke-width="2.069"/>
        <ellipse id="Ellipse_3" data-name="Ellipse 3" cx="11.306" cy="11.458" rx="11.306" ry="11.458" transform="translate(2085.361 260.417)" fill="none" stroke="#fff" stroke-linecap="round" stroke-linejoin="round" stroke-width="2.069"/>
        <path id="Path_34" data-name="Path 34" d="M2106.945,284.375l7.194,17.708-8.222-4.167-6.167,4.167-4.111-12.5" fill="none" stroke="#fff" stroke-linecap="round" stroke-linejoin="round" stroke-width="2.069"/>
        <path id="Path_35" data-name="Path 35" d="M2086.389,284.375l-7.194,17.708,8.222-4.167,6.167,4.167,3.083-8.333" fill="none" stroke="#fff" stroke-linecap="round" stroke-linejoin="round" stroke-width="2.069"/>
      </g>
    </g>
  </g>
</svg>
