<svg xmlns="http://www.w3.org/2000/svg" width="133.179" height="113.906" viewBox="0 0 133.179 113.906">
  <g id="Group_28" data-name="Group 28" transform="translate(-1652.685 -1235.097)">
    <path id="Polygon_2_copy_6" data-name="Polygon 2 copy 6" d="M1785.864,1235.1l-133.179,30.893L1750.614,1349Z" fill="#202020"/>
    <g id="Vector_Smart_Object" data-name="Vector Smart Object" transform="translate(208.083 558.959)">
      <g id="Group_24" data-name="Group 24">
        <g id="Group_21" data-name="Group 21">
          <g id="Group_18" data-name="Group 18">
            <path id="Path_55" data-name="Path 55" d="M1540.592,722.536a8.53,8.53,0,0,1-12.054-12.072c3.329-3.332,9.637-6.293,18.338-6.293C1542.456,708.6,1543.919,719.2,1540.592,722.536Z" fill="none" stroke="#fff" stroke-linecap="round" stroke-linejoin="round" stroke-width="2.085"/>
          </g>
          <g id="Group_20" data-name="Group 20">
            <g id="Group_19" data-name="Group 19">
              <path id="Path_56" data-name="Path 56" d="M1512.517,711.267a4.265,4.265,0,0,0,6.027-6.036c-1.665-1.667-4.819-3.146-9.169-3.146C1511.585,704.3,1510.852,709.6,1512.517,711.267Z" fill="none" stroke="#fff" stroke-linecap="round" stroke-linejoin="round" stroke-width="2.085"/>
            </g>
            <path id="Path_57" data-name="Path 57" d="M1518.544,711.267c3.2,3.207,7.5,20.028,7.5,20.028a40.011,40.011,0,0,1,10.417-18.778" fill="none" stroke="#fff" stroke-linecap="round" stroke-linejoin="round" stroke-width="2.085"/>
          </g>
        </g>
        <g id="Group_23" data-name="Group 23">
          <g id="Group_22" data-name="Group 22">
            <path id="Path_58" data-name="Path 58" d="M1498.958,745.9h6.25s3.7-11.325,4.167-16.691c-1.65-1.565-10.417-2.086-10.417-2.086Z" fill="none" stroke="#fff" stroke-linecap="round" stroke-linejoin="round" stroke-width="2.085"/>
            <path id="Path_59" data-name="Path 59" d="M1532.292,740.684l7.981-2a5.806,5.806,0,0,1,6.6,3.042h0l-11.458,5.216c-8.681,3.564-9.408,3.651-13.542,2.086l-15.625-5.216" fill="none" stroke="#fff" stroke-linecap="round" stroke-linejoin="round" stroke-width="2.085"/>
            <path id="Path_60" data-name="Path 60" d="M1509.375,731.295l18.75,4.173c2.781.7,4.167,2.016,4.167,4.886v.33l-2.8.7a6.236,6.236,0,0,1-2.742.067l-9.038-1.811" fill="none" stroke="#fff" stroke-linecap="round" stroke-linejoin="round" stroke-width="2.085"/>
          </g>
        </g>
      </g>
    </g>
  </g>
</svg>
