<svg xmlns="http://www.w3.org/2000/svg" width="133.18" height="113.906" viewBox="0 0 133.18 113.906">
  <g id="Group_26" data-name="Group 26" transform="translate(-667.685 -1235.097)">
    <path id="Polygon_2_copy_3" data-name="Polygon 2 copy 3" d="M800.865,1235.1l-133.18,30.893L765.614,1349Z" fill="#202020"/>
    <g id="Vector_Smart_Object" data-name="Vector Smart Object" transform="translate(610.174 -2461.369)">
      <g id="Group_4" data-name="Group 4">
        <path id="Path_29" data-name="Path 29" d="M130.078,3746.827l22.693,22.786a2.2,2.2,0,0,0,3.117,0l.19-.19a2.222,2.222,0,0,0,0-3.131l-26-26.107" fill="none" stroke="#fff" stroke-linecap="round" stroke-linejoin="round" stroke-width="2.209"/>
        <path id="Path_30" data-name="Path 30" d="M113.543,3722.476l1.1,7.748-7.717,3.321,7.717,3.321-1.1,7.748,6.614-4.427,6.614,4.427-1.1-7.748,7.717-3.321-7.717-3.321,1.1-7.748-6.614,4.427Z" fill="none" stroke="#fff" stroke-linecap="round" stroke-linejoin="round" stroke-width="2.209"/>
        <rect id="Rectangle_1" data-name="Rectangle 1" transform="translate(120.157 3722.476)" fill="none" stroke="#fff" stroke-linecap="round" stroke-linejoin="round" stroke-width="2.205"/>
        <rect id="Rectangle_2" data-name="Rectangle 2" transform="translate(131.181 3726.903)" fill="none" stroke="#fff" stroke-linecap="round" stroke-linejoin="round" stroke-width="2.205"/>
        <rect id="Rectangle_3" data-name="Rectangle 3" transform="translate(109.134 3726.903)" fill="none" stroke="#fff" stroke-linecap="round" stroke-linejoin="round" stroke-width="2.205"/>
        <rect id="Rectangle_4" data-name="Rectangle 4" transform="translate(120.157 3744.614)" fill="none" stroke="#fff" stroke-linecap="round" stroke-linejoin="round" stroke-width="2.205"/>
        <rect id="Rectangle_5" data-name="Rectangle 5" transform="translate(109.134 3740.186)" fill="none" stroke="#fff" stroke-linecap="round" stroke-linejoin="round" stroke-width="2.205"/>
        <line id="Line_1" data-name="Line 1" x1="2.205" y2="2.214" transform="translate(143.307 3756.789)" fill="none" stroke="#fff" stroke-linecap="round" stroke-linejoin="round" stroke-width="2.209"/>
      </g>
    </g>
  </g>
</svg>
