<svg xmlns="http://www.w3.org/2000/svg" width="133.179" height="113.906" viewBox="0 0 133.179 113.906">
  <g id="Group_27" data-name="Group 27" transform="translate(-1158.685 -1235.097)">
    <path id="Polygon_2_copy_5" data-name="Polygon 2 copy 5" d="M1291.865,1235.1l-133.179,30.893L1256.614,1349Z" fill="#202020"/>
    <g id="Vector_Smart_Object" data-name="Vector Smart Object" transform="translate(376.217 -515.913)">
      <g id="Group_11" data-name="Group 11">
        <g id="Group_10" data-name="Group 10">
          <g id="Group_8" data-name="Group 8">
            <circle id="Ellipse_5" data-name="Ellipse 5" cx="4.348" cy="4.348" r="4.348" transform="translate(855.435 1790.217)" fill="none" stroke="#fff" stroke-linecap="round" stroke-linejoin="round" stroke-width="2.174"/>
            <path id="Path_39" data-name="Path 39" d="M868.478,1809.783c0-4.8-3.893-10.87-8.7-10.87s-8.7,6.068-8.7,10.87Z" fill="none" stroke="#fff" stroke-linecap="round" stroke-linejoin="round" stroke-width="2.174"/>
          </g>
          <g id="Group_9" data-name="Group 9">
            <path id="Path_40" data-name="Path 40" d="M868.478,1794.565a4.348,4.348,0,1,0-3.489-6.922A8.658,8.658,0,0,1,868.478,1794.565Z" fill="none" stroke="#fff" stroke-linecap="round" stroke-linejoin="round" stroke-width="2.174"/>
            <path id="Path_41" data-name="Path 41" d="M872.137,1805.435h5.037c0-4.8-3.893-10.87-8.7-10.87a8.608,8.608,0,0,1-.759,3.517A17.415,17.415,0,0,1,872.137,1805.435Z" fill="none" stroke="#fff" stroke-linecap="round" stroke-linejoin="round" stroke-width="2.174"/>
            <path id="Path_42" data-name="Path 42" d="M854.576,1787.643a4.343,4.343,0,1,0-3.489,6.922A8.658,8.658,0,0,1,854.576,1787.643Z" fill="none" stroke="#fff" stroke-linecap="round" stroke-linejoin="round" stroke-width="2.174"/>
            <path id="Path_43" data-name="Path 43" d="M851.846,1798.083a8.608,8.608,0,0,1-.759-3.517c-4.8,0-8.7,6.067-8.7,10.87h5.037A17.415,17.415,0,0,1,851.846,1798.083Z" fill="none" stroke="#fff" stroke-linecap="round" stroke-linejoin="round" stroke-width="2.174"/>
          </g>
        </g>
        <circle id="Ellipse_6" data-name="Ellipse 6" cx="23.913" cy="23.913" r="23.913" transform="translate(835.87 1775)" fill="none" stroke="#fff" stroke-linecap="round" stroke-linejoin="round" stroke-width="2.174"/>
        <line id="Line_3" data-name="Line 3" y2="6.522" transform="translate(859.783 1775)" fill="none" stroke="#fff" stroke-linecap="round" stroke-linejoin="round" stroke-width="2.174"/>
        <line id="Line_4" data-name="Line 4" y1="6.522" transform="translate(859.783 1816.304)" fill="none" stroke="#fff" stroke-linecap="round" stroke-linejoin="round" stroke-width="2.174"/>
        <line id="Line_5" data-name="Line 5" x2="4.348" transform="translate(835.87 1798.913)" fill="none" stroke="#fff" stroke-linecap="round" stroke-linejoin="round" stroke-width="2.174"/>
        <line id="Line_6" data-name="Line 6" x1="4.348" transform="translate(879.348 1798.913)" fill="none" stroke="#fff" stroke-linecap="round" stroke-linejoin="round" stroke-width="2.174"/>
      </g>
    </g>
  </g>
</svg>
