<?xml version="1.0" encoding="utf-8"?>
<!-- Generator: Adobe Illustrator 25.2.3, SVG Export Plug-In . SVG Version: 6.00 Build 0)  -->
<svg version="1.1" id="Layer_1" xmlns="http://www.w3.org/2000/svg" xmlns:xlink="http://www.w3.org/1999/xlink" x="0px" y="0px"
	 viewBox="0 0 133.2 113.9" style="enable-background:new 0 0 133.2 113.9;" xml:space="preserve">
<style type="text/css">
	.st0{fill:#2190CB;}
	.st1{fill:none;stroke:#FFFFFF;stroke-width:2.174;stroke-linecap:round;stroke-linejoin:round;}
</style>
<g id="Group_50" transform="translate(-1650.685 -1882.097)">
	<path id="Polygon_2_copy_7" class="st0" d="M1783.9,1882.1l-133.2,30.9l97.9,83L1783.9,1882.1z"/>
	<g id="Vector_Smart_Object">
		<g id="Vector_Smart_Object-2" transform="translate(871.217 133.087)">
			<g id="Group_39">
				<g id="Group_38">
					<g id="Group_36">
						<circle id="Ellipse_9" class="st1" cx="859.8" cy="1794.6" r="4.3"/>
						<path id="Path_84" class="st1" d="M868.5,1809.8c0-4.8-3.9-10.9-8.7-10.9s-8.7,6.1-8.7,10.9H868.5z"/>
					</g>
					<g id="Group_37">
						<path id="Path_85" class="st1" d="M868.5,1794.6c2.4,0,4.4-1.9,4.4-4.3c0-2.4-1.9-4.4-4.3-4.4c-1.4,0-2.7,0.7-3.5,1.8
							C867.2,1789.3,868.5,1791.8,868.5,1794.6z"/>
						<path id="Path_86" class="st1" d="M872.1,1805.4h5c0-4.8-3.9-10.9-8.7-10.9c0,1.2-0.3,2.4-0.8,3.5
							C869.8,1800.1,871.3,1802.7,872.1,1805.4z"/>
						<path id="Path_87" class="st1" d="M854.6,1787.6c-1.4-1.9-4.1-2.3-6.1-0.9c-1.9,1.4-2.3,4.1-0.9,6.1c0.8,1.1,2.1,1.8,3.5,1.8
							C851.1,1791.8,852.4,1789.3,854.6,1787.6z"/>
						<path id="Path_88" class="st1" d="M851.8,1798.1c-0.5-1.1-0.8-2.3-0.8-3.5c-4.8,0-8.7,6.1-8.7,10.9h5
							C848.3,1802.7,849.8,1800.1,851.8,1798.1z"/>
					</g>
				</g>
				<circle id="Ellipse_10" class="st1" cx="859.8" cy="1798.9" r="23.9"/>
				<line id="Line_29" class="st1" x1="859.8" y1="1775" x2="859.8" y2="1781.5"/>
				<line id="Line_30" class="st1" x1="859.8" y1="1822.8" x2="859.8" y2="1816.3"/>
				<line id="Line_31" class="st1" x1="835.9" y1="1798.9" x2="840.2" y2="1798.9"/>
				<line id="Line_32" class="st1" x1="883.7" y1="1798.9" x2="879.3" y2="1798.9"/>
			</g>
		</g>
	</g>
</g>
</svg>
