<?xml version="1.0"?>
<svg xmlns="http://www.w3.org/2000/svg" xmlns:xlink="http://www.w3.org/1999/xlink" xmlns:svgjs="http://svgjs.com/svgjs" version="1.1" width="512" height="512" x="0" y="0" viewBox="0 0 512 512" style="enable-background:new 0 0 512 512" xml:space="preserve" class=""><g><path xmlns="http://www.w3.org/2000/svg" d="m463.154 185.584h-13.654v-41.699c0-5.523-4.478-10-10-10h-32.519v-115.249c0-5.523-4.478-10-10-10h-281.963c-5.522 0-10 4.477-10 10v115.249h-32.52c-5.522 0-10 4.477-10 10v41.699h-13.653c-26.933 0-48.845 21.912-48.845 48.846v133.782c0 26.934 21.912 48.846 48.845 48.846h56.173v76.307c0 5.522 4.478 10 10 10h281.964c5.522 0 10-4.478 10-10v-76.307h56.173c26.934 0 48.846-21.912 48.846-48.846v-133.782c-.001-26.934-21.913-48.846-48.847-48.846zm-33.654-31.699v31.699h-22.519v-31.699zm-42.519-125.249v156.948h-261.963v-156.948zm-304.483 125.249h22.52v31.699h-22.52zm304.483 329.479h-261.963v-112.343h261.964v112.343zm76.173-86.306h-56.173v-36.037c0-5.523-4.478-10-10-10h-281.963c-5.522 0-10 4.477-10 10v36.037h-56.173c-15.905 0-28.845-12.94-28.845-28.846v-119.246h162.64c5.522 0 10-4.477 10-10s-4.478-10-10-10h-162.114c2.561-13.301 14.282-23.382 28.319-23.382h414.31c14.037 0 25.758 10.081 28.32 23.382h-162.116c-5.522 0-10 4.477-10 10s4.478 10 10 10h162.641v119.246c0 15.906-12.94 28.846-28.846 28.846zm-312.821 6.07c0-5.523 4.478-10 10-10h191.333c5.522 0 10 4.477 10 10s-4.478 10-10 10h-191.333c-5.522 0-10-4.477-10-10zm0 48.129c0-5.523 4.478-10 10-10h191.333c5.522 0 10 4.477 10 10s-4.478 10-10 10h-191.333c-5.522 0-10-4.477-10-10zm116.072-212.292c0 5.523-4.478 10-10 10h-.81c-5.522 0-10-4.477-10-10s4.478-10 10-10h.81c5.523 0 10 4.477 10 10zm-32.218 0c0 5.523-4.478 10-10 10h-.81c-5.522 0-10-4.477-10-10s4.478-10 10-10h.81c5.522 0 10 4.477 10 10zm64.437 0c0 5.523-4.478 10-10 10h-.81c-5.522 0-10-4.477-10-10s4.478-10 10-10h.81c5.522 0 10 4.477 10 10z" fill="#1089ff" data-original="#000000" style=""/></g></svg>
