<?xml version="1.0"?>
<svg xmlns="http://www.w3.org/2000/svg" xmlns:xlink="http://www.w3.org/1999/xlink" xmlns:svgjs="http://svgjs.com/svgjs" version="1.1" width="512" height="512" x="0" y="0" viewBox="0 0 512 512" style="enable-background:new 0 0 512 512" xml:space="preserve" class=""><g><path xmlns="http://www.w3.org/2000/svg" d="m280.640625 464.527344h-141.835937v-403.304688h45.378906v31.953125c0 4.257813 3.453125 7.707031 7.710937 7.707031h197.699219c4.257812 0 7.710938-3.449218 7.710938-7.707031v-31.953125h45.378906v199.652344c0 4.257812 3.449218 7.710938 7.707031 7.710938s7.707031-3.453126 7.707031-7.710938v-207.363281c0-4.257813-3.449218-7.707031-7.707031-7.707031h-53.085937v-8.722657c0-4.257812-3.453126-7.707031-7.710938-7.707031h-57.976562c-5.785157-17.355469-22.054688-29.375-40.871094-29.375-18.820313 0-35.089844 12.019531-40.875 29.375h-57.976563c-4.257812 0-7.710937 3.449219-7.710937 7.707031v8.722657h-53.085938c-4.257812 0-7.707031 3.449218-7.707031 7.707031v418.722656c0 4.257813 3.449219 7.710937 7.707031 7.710937h149.542969c4.253906 0 7.707031-3.453124 7.707031-7.710937s-3.453125-7.707031-7.707031-7.707031zm-81.039063-419.734375h56.261719c3.753907 0 6.960938-2.707031 7.597657-6.40625 2.285156-13.308594 13.757812-22.96875 27.285156-22.96875 13.523437 0 24.996094 9.660156 27.28125 22.96875.636718 3.699219 3.84375 6.40625 7.597656 6.40625h56.261719v40.671875h-182.285157zm0 0" fill="#1f89ff" data-original="#000000" style="" class=""/><path xmlns="http://www.w3.org/2000/svg" d="m91.332031 161.390625h-1.714843v-21.929687c0-4.257813-3.449219-7.710938-7.707032-7.710938h-54.6875c-4.257812 0-7.707031 3.453125-7.707031 7.710938v21.929687h-3.585937c-8.785157 0-15.929688 7.144531-15.929688 15.929687v10.570313c0 9.082031 7.390625 16.46875 16.472656 16.46875.582032 0 1.054688.472656 1.054688 1.054687v215.035157c0 19.90625 16.195312 36.101562 36.101562 36.101562s36.105469-16.195312 36.105469-36.101562v-215.035157c0-.582031.472656-1.054687 1.054687-1.054687 9.082032 0 16.46875-7.386719 16.46875-16.46875v-10.570313c.003907-8.785156-7.144531-15.929687-15.925781-15.929687zm-56.402343-14.222656h39.269531v14.222656h-39.269531zm39.386718 232.863281h-14.648437v-111.445312h14.648437zm17.527344-192.140625c0 .578125-.472656 1.054687-1.054688 1.054687-9.082031 0-16.472656 7.386719-16.472656 16.46875v13.878907h-22.359375c-4.253906 0-7.707031 3.449219-7.707031 7.707031s3.453125 7.710938 7.707031 7.710938h22.359375v18.457031h-22.359375c-4.253906 0-7.707031 3.449219-7.707031 7.707031v126.863281c0 4.257813 3.453125 7.710938 7.707031 7.710938h22.359375v25c0 11.40625-9.277344 20.683593-20.6875 20.683593-11.40625 0-20.683594-9.277343-20.683594-20.683593v-215.035157c0-9.082031-7.390624-16.46875-16.472656-16.46875-.582031 0-1.054687-.472656-1.054687-1.054687v-10.570313c0-.28125.230469-.511718.511719-.511718h75.402343c.28125 0 .511719.226562.511719.511718zm0 0" fill="#1f89ff" data-original="#000000" style="" class=""/><path xmlns="http://www.w3.org/2000/svg" d="m397.023438 137.878906h-147.128907c-4.257812 0-7.707031 3.453125-7.707031 7.710938 0 4.257812 3.449219 7.707031 7.707031 7.707031h147.128907c4.253906 0 7.707031-3.449219 7.707031-7.707031 0-4.257813-3.453125-7.710938-7.707031-7.710938zm0 0" fill="#1f89ff" data-original="#000000" style="" class=""/><path xmlns="http://www.w3.org/2000/svg" d="m195.183594 137.878906c-11.984375 0-21.734375 9.75-21.734375 21.734375 0 11.980469 9.75 21.730469 21.734375 21.730469 11.980468 0 21.730468-9.75 21.730468-21.730469 0-11.984375-9.75-21.734375-21.730468-21.734375zm0 28.046875c-3.484375 0-6.316406-2.832031-6.316406-6.3125 0-3.484375 2.832031-6.316406 6.316406-6.316406 3.480468 0 6.3125 2.832031 6.3125 6.316406 0 3.480469-2.832032 6.3125-6.3125 6.3125zm0 0" fill="#1f89ff" data-original="#000000" style="" class=""/><path xmlns="http://www.w3.org/2000/svg" d="m249.894531 181.34375h73.566407c4.253906 0 7.707031-3.449219 7.707031-7.707031 0-4.257813-3.453125-7.710938-7.707031-7.710938h-73.566407c-4.257812 0-7.707031 3.453125-7.707031 7.710938 0 4.257812 3.449219 7.707031 7.707031 7.707031zm0 0" fill="#1f89ff" data-original="#000000" style="" class=""/><path xmlns="http://www.w3.org/2000/svg" d="m404.730469 226.050781c0-4.257812-3.453125-7.710937-7.707031-7.710937h-147.128907c-4.257812 0-7.707031 3.453125-7.707031 7.710937 0 4.253907 3.449219 7.707031 7.707031 7.707031h147.128907c4.253906 0 7.707031-3.453124 7.707031-7.707031zm0 0" fill="#1f89ff" data-original="#000000" style="" class=""/><path xmlns="http://www.w3.org/2000/svg" d="m195.183594 218.339844c-11.984375 0-21.734375 9.75-21.734375 21.734375 0 11.980469 9.75 21.730469 21.734375 21.730469 11.980468 0 21.730468-9.75 21.730468-21.730469 0-11.984375-9.75-21.734375-21.730468-21.734375zm0 28.046875c-3.484375 0-6.316406-2.832031-6.316406-6.316407 0-3.480468 2.832031-6.3125 6.316406-6.3125 3.480468 0 6.3125 2.832032 6.3125 6.3125 0 3.484376-2.832032 6.316407-6.3125 6.316407zm0 0" fill="#1f89ff" data-original="#000000" style="" class=""/><path xmlns="http://www.w3.org/2000/svg" d="m249.894531 246.386719c-4.257812 0-7.707031 3.449219-7.707031 7.707031s3.449219 7.710938 7.707031 7.710938h73.566407c4.253906 0 7.707031-3.453126 7.707031-7.710938s-3.453125-7.707031-7.707031-7.707031zm0 0" fill="#1f89ff" data-original="#000000" style="" class=""/><path xmlns="http://www.w3.org/2000/svg" d="m195.183594 298.800781c-11.984375 0-21.734375 9.75-21.734375 21.730469 0 11.984375 9.75 21.734375 21.734375 21.734375 11.980468 0 21.730468-9.75 21.730468-21.734375 0-11.980469-9.75-21.730469-21.730468-21.730469zm0 28.046875c-3.484375 0-6.316406-2.832031-6.316406-6.316406 0-3.480469 2.832031-6.3125 6.316406-6.3125 3.480468 0 6.3125 2.832031 6.3125 6.3125 0 3.484375-2.832032 6.316406-6.3125 6.316406zm0 0" fill="#1f89ff" data-original="#000000" style="" class=""/><path xmlns="http://www.w3.org/2000/svg" d="m195.183594 379.261719c-11.984375 0-21.734375 9.746093-21.734375 21.730469 0 11.984374 9.75 21.730468 21.734375 21.730468 11.980468 0 21.730468-9.746094 21.730468-21.730468 0-11.984376-9.75-21.730469-21.730468-21.730469zm0 28.046875c-3.484375 0-6.316406-2.835938-6.316406-6.316406 0-3.480469 2.832031-6.316407 6.316406-6.316407 3.480468 0 6.3125 2.835938 6.3125 6.316407 0 3.480468-2.832032 6.316406-6.3125 6.316406zm0 0" fill="#1f89ff" data-original="#000000" style="" class=""/><path xmlns="http://www.w3.org/2000/svg" d="m477.265625 307.882812c-27.609375-27.605468-72.53125-27.605468-100.140625 0l-7.03125 7.03125-7.027344-7.03125c-27.609375-27.605468-72.53125-27.605468-100.140625 0-27.609375 27.609376-27.609375 72.53125 0 100.140626l101.71875 101.71875c1.503907 1.503906 3.476563 2.257812 5.449219 2.257812s3.945312-.753906 5.453125-2.257812l101.71875-101.71875c27.609375-27.609376 27.609375-72.53125 0-100.140626zm-10.902344 89.238282-96.269531 96.269531-96.265625-96.269531c-21.597656-21.59375-21.597656-56.738282 0-78.335938 10.800781-10.796875 24.980469-16.195312 39.167969-16.195312 14.183594 0 28.371094 5.398437 39.167968 16.195312l12.480469 12.480469c1.445313 1.449219 3.40625 2.261719 5.449219 2.261719 2.046875 0 4.007812-.8125 5.453125-2.261719l12.480469-12.480469c21.597656-21.59375 56.738281-21.59375 78.335937 0 21.597657 21.597656 21.597657 56.742188 0 78.335938zm0 0" fill="#1f89ff" data-original="#000000" style="" class=""/><path xmlns="http://www.w3.org/2000/svg" d="m432.722656 388.738281h-29.242187c-3.085938 0-5.875 1.84375-7.085938 4.679688l-6.152343 14.394531-11.097657-55.957031c-.699219-3.523438-3.742187-6.097657-7.332031-6.207031-3.574219-.117188-6.777344 2.277343-7.6875 5.753906l-10.824219 41.355468-7.277343-18.324218c-1.007813-2.535156-3.277344-4.347656-5.972657-4.773438-2.691406-.417968-5.40625.613282-7.144531 2.714844l-13.476562 16.363281h-16.300782c-4.253906 0-7.707031 3.453125-7.707031 7.710938 0 4.253906 3.453125 7.707031 7.707031 7.707031h19.9375c2.304688 0 4.484375-1.03125 5.949219-2.808594l7.496094-9.097656 11.132812 28.03125c1.226563 3.097656 4.304688 5.070312 7.632813 4.851562 3.324218-.203124 6.144531-2.519531 6.988281-5.742187l8.28125-31.636719 9.421875 47.511719c.660156 3.316406 3.398438 5.816406 6.761719 6.167969.269531.027344.539062.042968.804687.042968 3.058594 0 5.863282-1.820312 7.082032-4.679687l13.953124-32.640625h24.152344c4.257813 0 7.707032-3.449219 7.707032-7.707031 0-4.257813-3.449219-7.710938-7.707032-7.710938zm0 0" fill="#1f89ff" data-original="#000000" style="" class=""/></g></svg>
