<?xml version="1.0"?>
<svg xmlns="http://www.w3.org/2000/svg" xmlns:xlink="http://www.w3.org/1999/xlink" xmlns:svgjs="http://svgjs.com/svgjs" version="1.1" width="512" height="512" x="0" y="0" viewBox="0 0 64 64" style="enable-background:new 0 0 512 512" xml:space="preserve" class=""><g><path xmlns="http://www.w3.org/2000/svg" d="m10 39h20c.553 0 1-.448 1-1v-16c0-.552-.447-1-1-1h-20c-.553 0-1 .448-1 1v16c0 .552.447 1 1 1zm10-9c-.827 0-1.5-.673-1.5-1.5s.673-1.5 1.5-1.5 1.5.673 1.5 1.5-.673 1.5-1.5 1.5zm-1.113 2h2.227c1.039 0 1.886.846 1.886 1.887v3.113h-6v-3.113c0-1.041.847-1.887 1.887-1.887zm-7.887-9h18v14h-4v-3.113c0-1.495-.858-2.781-2.099-3.431.378-.559.599-1.232.599-1.956 0-1.93-1.57-3.5-3.5-3.5s-3.5 1.57-3.5 3.5c0 .724.221 1.397.599 1.956-1.241.65-2.099 1.935-2.099 3.431v3.113h-4z" fill="#1f89ff" data-original="#000000" style="" class=""/><path xmlns="http://www.w3.org/2000/svg" d="m34 39h20c.553 0 1-.448 1-1v-16c0-.552-.447-1-1-1h-20c-.553 0-1 .448-1 1v16c0 .552.447 1 1 1zm10-9c-.827 0-1.5-.673-1.5-1.5s.673-1.5 1.5-1.5 1.5.673 1.5 1.5-.673 1.5-1.5 1.5zm-1.113 2h2.227c1.039 0 1.886.846 1.886 1.887v3.113h-6v-3.113c0-1.041.847-1.887 1.887-1.887zm-7.887-9h18v14h-4v-3.113c0-1.495-.858-2.781-2.099-3.431.378-.559.599-1.232.599-1.956 0-1.93-1.57-3.5-3.5-3.5s-3.5 1.57-3.5 3.5c0 .724.221 1.397.599 1.956-1.241.65-2.099 1.935-2.099 3.431v3.113h-4z" fill="#1f89ff" data-original="#000000" style="" class=""/><path xmlns="http://www.w3.org/2000/svg" d="m10 59h20c.553 0 1-.448 1-1v-16c0-.552-.447-1-1-1h-20c-.553 0-1 .448-1 1v16c0 .552.447 1 1 1zm10-9c-.827 0-1.5-.673-1.5-1.5s.673-1.5 1.5-1.5 1.5.673 1.5 1.5-.673 1.5-1.5 1.5zm-1.113 2h2.227c1.039 0 1.886.846 1.886 1.887v3.113h-6v-3.113c0-1.041.847-1.887 1.887-1.887zm-7.887-9h18v14h-4v-3.113c0-1.495-.858-2.781-2.099-3.431.378-.559.599-1.232.599-1.956 0-1.93-1.57-3.5-3.5-3.5s-3.5 1.57-3.5 3.5c0 .724.221 1.397.599 1.956-1.241.65-2.099 1.935-2.099 3.431v3.113h-4z" fill="#1f89ff" data-original="#000000" style="" class=""/><path xmlns="http://www.w3.org/2000/svg" d="m34 59h20c.553 0 1-.448 1-1v-16c0-.552-.447-1-1-1h-20c-.553 0-1 .448-1 1v16c0 .552.447 1 1 1zm10-9c-.827 0-1.5-.673-1.5-1.5s.673-1.5 1.5-1.5 1.5.673 1.5 1.5-.673 1.5-1.5 1.5zm-1.113 2h2.227c1.039 0 1.886.846 1.886 1.887v3.113h-6v-3.113c0-1.041.847-1.887 1.887-1.887zm-7.887-9h18v14h-4v-3.113c0-1.495-.858-2.781-2.099-3.431.378-.559.599-1.232.599-1.956 0-1.93-1.57-3.5-3.5-3.5s-3.5 1.57-3.5 3.5c0 .724.221 1.397.599 1.956-1.241.65-2.099 1.935-2.099 3.431v3.113h-4z" fill="#1f89ff" data-original="#000000" style="" class=""/><path xmlns="http://www.w3.org/2000/svg" d="m2 19h3v43c0 .552.447 1 1 1h52c.553 0 1-.448 1-1v-43h3c.332 0 .642-.165.828-.439.186-.275.224-.624.101-.932l-4-10c-.153-.38-.52-.629-.929-.629h-3v-5c0-.552-.447-1-1-1h-8c-.553 0-1 .448-1 1v5h-39c-.409 0-.776.249-.929.628l-4 10c-.123.308-.085.657.101.932s.496.44.828.44zm55 42h-50v-42h50zm-10-58h6v4h-6zm-40.323 6h50.646l3.2 8h-57.046z" fill="#1f89ff" data-original="#000000" style="" class=""/></g></svg>
