<svg xmlns="http://www.w3.org/2000/svg" width="133.18" height="113.906" viewBox="0 0 133.18 113.906">
  <g id="Group_60" data-name="Group 60" transform="translate(-1569.685 -3707.097)">
    <path id="Polygon_2_copy_2" data-name="Polygon 2 copy 2" d="M1702.865,3707.1l-133.18,30.893L1667.614,3821Z" fill="#2190cb"/>
    <g id="Vector_Smart_Object" data-name="Vector Smart Object" transform="translate(1623 3732)">
      <g id="Group_2" data-name="Group 2">
        <circle id="Ellipse_1" data-name="Ellipse 1" cx="0.833" cy="0.833" r="0.833" transform="translate(24.167 32.5)" fill="none" stroke="#fff" stroke-linecap="round" stroke-linejoin="round" stroke-width="1.667"/>
        <path id="Path_22" data-name="Path 22" d="M25.831,25.833l-6.31-10.206a2,2,0,0,1,.6-2.875c1.048-.605,1.984-.058,2.728.957l6.432,8.947a2.192,2.192,0,0,1,3.8-2.193l.548.949a2.193,2.193,0,0,1,3.8-2.193l.823,1.424a1.681,1.681,0,0,1,.6-2.246,1.724,1.724,0,0,1,2.247.6,37.133,37.133,0,0,1,4.743,10.167h-45v5A3.291,3.291,0,0,0,4.167,37.5H45.833a3.28,3.28,0,0,0,3.333-3.333v-30A3.324,3.324,0,0,0,45.833.833H4.167A3.452,3.452,0,0,0,.833,4.167V25.833" fill="none" stroke="#fff" stroke-linecap="round" stroke-linejoin="round" stroke-width="1.667"/>
        <line id="Line_1" data-name="Line 1" y2="3.333" transform="translate(20.833 5.833)" fill="none" stroke="#fff" stroke-linecap="round" stroke-linejoin="round" stroke-width="1.667"/>
        <line id="Line_2" data-name="Line 2" x1="2.358" y2="2.357" transform="translate(24.368 8.275)" fill="none" stroke="#fff" stroke-linecap="round" stroke-linejoin="round" stroke-width="1.667"/>
        <line id="Line_3" data-name="Line 3" x2="2.357" y2="2.357" transform="translate(14.941 8.274)" fill="none" stroke="#fff" stroke-linecap="round" stroke-linejoin="round" stroke-width="1.667"/>
        <line id="Line_4" data-name="Line 4" x2="3.332" transform="translate(12.5 14.167)" fill="none" stroke="#fff" stroke-linecap="round" stroke-linejoin="round" stroke-width="1.667"/>
        <line id="Line_5" data-name="Line 5" y1="2.356" x2="2.357" transform="translate(14.941 17.703)" fill="none" stroke="#fff" stroke-linecap="round" stroke-linejoin="round" stroke-width="1.667"/>
        <path id="Path_23" data-name="Path 23" d="M29.167,40.833v5H32.5a3.585,3.585,0,0,1,3.333,3.333H14.167A3.585,3.585,0,0,1,17.5,45.833h8.333" fill="none" stroke="#fff" stroke-linecap="round" stroke-linejoin="round" stroke-width="1.667"/>
        <line id="Line_6" data-name="Line 6" y1="5" transform="translate(20.833 40.833)" fill="none" stroke="#fff" stroke-linecap="round" stroke-linejoin="round" stroke-width="1.667"/>
      </g>
    </g>
  </g>
</svg>
