<?xml version="1.0" encoding="utf-8"?>
<!-- Generator: Adobe Illustrator 25.2.3, SVG Export Plug-In . SVG Version: 6.00 Build 0)  -->
<svg version="1.1" id="Layer_1" xmlns="http://www.w3.org/2000/svg" xmlns:xlink="http://www.w3.org/1999/xlink" x="0px" y="0px"
	 viewBox="0 0 133.2 113.9" style="enable-background:new 0 0 133.2 113.9;" xml:space="preserve">
<style type="text/css">
	.st0{fill:#2190CB;}
	.st1{fill:#FFFFFF;}
</style>
<g id="Group_53" transform="translate(-177.685 -1882.097)">
	<path id="Polygon_2_copy_7" class="st0" d="M310.9,1882.1L177.7,1913l97.9,83L310.9,1882.1z"/>
	<path class="st1" d="M278.9,1910.1c-5.7-5.7-13.2-8.8-21.2-8.8c-8,0-15.5,3.1-21.2,8.8c-5.7,5.7-8.8,13.2-8.8,21.2
		s3.1,15.5,8.8,21.2c5.7,5.7,13.2,8.8,21.2,8.8c8,0,15.5-3.1,21.2-8.8c5.7-5.7,8.8-13.2,8.8-21.2S284.6,1915.7,278.9,1910.1
		L278.9,1910.1z M239,1912.6c10-10,25.9-10.2,36.1-1.2l-7.6,7.6h-18.7c-1,0-1.8-0.8-1.8-1.8s0.8-1.8,1.8-1.8h3.5
		c3.9,0,7.1-3.2,7.1-7.1h-3.5c0,1.9-1.6,3.5-3.5,3.5h-3.5c-2.9,0-5.3,2.4-5.3,5.3s2.4,5.3,5.3,5.3H264l-3.5,3.5h-24v10.6h13.4
		l-12.1,12.1C228.7,1938.3,229.1,1922.5,239,1912.6L239,1912.6z M271.8,1922.5c2,0,3.6,1.6,3.6,3.5h-9.9l3.5-3.5H271.8z
		 M240.1,1933.1v-3.5h5.3v3.5H240.1z M248.9,1929.5h8.1l-3.5,3.5h-4.6V1929.5z M262,1929.5h13.4v3.5h-16.9L262,1929.5z M276.4,1950
		c-10,10-25.9,10.2-36.1,1.2l14.6-14.6h24c0-1.3,0-9.8,0-10.6h0c0-3.6-2.8-6.6-6.4-7l5.1-5.1C286.7,1924.2,286.5,1940,276.4,1950z"
		/>
</g>
</svg>
