<?xml version="1.0" encoding="utf-8"?>
<!-- Generator: Adobe Illustrator 25.2.3, SVG Export Plug-In . SVG Version: 6.00 Build 0)  -->
<svg version="1.1" id="Layer_1" xmlns="http://www.w3.org/2000/svg" xmlns:xlink="http://www.w3.org/1999/xlink" x="0px" y="0px"
	 viewBox="0 0 133.2 113.9" style="enable-background:new 0 0 133.2 113.9;" xml:space="preserve">
<style type="text/css">
	.st0{fill:#2190CB;}
	.st1{fill:#FFFFFF;}
</style>
<g id="Group_53" transform="translate(-177.685 -1882.097)">
	<path id="Polygon_2_copy_7" class="st0" d="M310.9,1882.1L177.7,1913l97.9,83L310.9,1882.1z"/>
	<g id="e733f115-4e82-41d1-95a5-43f8ba25b98e">
		<path class="st1" d="M275.9,1904.2h-34.1c-5.2,0-9.5,4.2-9.5,9.5v34.1c0,5.2,4.2,9.5,9.5,9.5h34.1c5.2,0,9.5-4.2,9.5-9.5v-34.1
			C285.4,1908.4,281.1,1904.2,275.9,1904.2z M281.6,1947.7c0,3.1-2.5,5.7-5.7,5.7h-34.1c-3.1,0-5.7-2.5-5.7-5.7v-34.1
			c0-3.1,2.5-5.7,5.7-5.7h34.1c3.1,0,5.7,2.5,5.7,5.7V1947.7z M277.4,1920.9c-2.6-3.1-5.9-5.5-9.6-7.2c-5.7-2.4-12.2-2.4-17.9,0
			c-3.6,1.7-6.9,4.2-9.5,7.3c-0.3,0.4-0.5,0.9-0.4,1.4c0.1,0.5,0.3,1,0.7,1.3l8.5,6.7c0.4,0.3,1,0.5,1.5,0.4c0.5-0.1,1-0.4,1.3-0.9
			c1.4-2.5,4-4.1,6.8-4.2c2.9,0.1,5.5,1.6,6.9,4.1c0.3,0.5,0.8,0.8,1.3,0.9c0.1,0,0.2,0,0.3,0c0.4,0,0.8-0.1,1.2-0.4l8.5-6.7
			c0.4-0.3,0.6-0.8,0.7-1.3C277.8,1921.7,277.7,1921.3,277.4,1920.9L277.4,1920.9z M267.8,1926.1c-1.8-2.1-4.2-3.6-7-4.1v-2.7
			c0-1-0.8-1.9-1.9-1.9c-1,0-1.9,0.8-1.9,1.9v2.7c-2.7,0.5-5.2,1.9-7,4.1l-5.4-4.3c2-2,4.3-3.6,6.8-4.8c4.8-2,10.1-2,14.9,0
			c2.5,1.2,4.8,2.8,6.8,4.8L267.8,1926.1z"/>
	</g>
</g>
</svg>
