<?xml version="1.0" encoding="utf-8"?>
<!-- Generator: Adobe Illustrator 25.2.3, SVG Export Plug-In . SVG Version: 6.00 Build 0)  -->
<svg version="1.1" id="Layer_1" xmlns="http://www.w3.org/2000/svg" xmlns:xlink="http://www.w3.org/1999/xlink" x="0px" y="0px"
	 viewBox="0 0 133.2 113.9" style="enable-background:new 0 0 133.2 113.9;" xml:space="preserve">
<style type="text/css">
	.st0{fill:#2190CB;}
	.st1{fill:#FFFFFF;}
</style>
<g id="Group_53" transform="translate(-177.685 -1882.097)">
	<path id="Polygon_2_copy_7" class="st0" d="M310.9,1882.1L177.7,1913l97.9,83L310.9,1882.1z"/>
	<path class="st1" d="M254.1,1938.7c0.3,0.3,0.7,0.4,1.2,0.4s0.8-0.1,1.2-0.4c7.2-6.3,12.8-9.9,12.8-15.8c0-4.6-3.3-8.4-7.8-8.4
		c-2.4,0-4.5,1.1-6.1,3.2c-1.6-2.1-3.7-3.2-6.1-3.2c-4.5,0-7.8,3.8-7.8,8.4C241.4,1928.8,246.9,1932.5,254.1,1938.7z M249.2,1918
		c3.2,0,4.3,3.8,4.4,4c0.2,0.8,0.9,1.3,1.7,1.3c0.8,0,1.5-0.5,1.7-1.3c0-0.2,1.2-4,4.4-4c2.5,0,4.3,2.1,4.3,4.8
		c0,3.8-4,6.7-10.4,12.2c-6.4-5.4-10.4-8.4-10.4-12.2C244.9,1920.1,246.7,1918,249.2,1918z"/>
	<path class="st1" d="M243,1960.3L243,1960.3c0,1,0.8,1.8,1.8,1.8h17.6c1,0,1.8-0.8,1.8-1.8c0-2.9,2.4-5.3,5.3-5.3h7
		c1,0,1.8-0.8,1.8-1.8v-9c0-2.9,2.4-5.3,5.3-5.3c0.6,0,1.2-0.4,1.6-0.9c0.3-0.6,0.3-1.3-0.1-1.8c-0.1-0.1-5.5-8.2-7-10.4
		c0-2.4,0-3.8,0-3.8c0-0.1,0-0.2,0-0.2c-1.3-10.2-9.7-18.5-19.9-19.6c-13.8-1.6-25.5,9.2-25.5,22.7c0,4.5,1.3,8.9,3.8,12.6
		C240.6,1944.1,243,1952.2,243,1960.3z M257.6,1905.7c8.6,1,15.7,7.9,16.8,16.5c0,0.4,0,1.9,0,4.2c0,0.3,0.1,0.7,0.3,1
		c0.5,0.7,3.8,5.6,5.8,8.6c-2.9,1-5,3.5-5.7,6.5h-0.5c-2.7,0-5.3-1.1-7.2-3c-0.7-0.7-1.8-0.7-2.5,0c-0.7,0.7-0.7,1.8,0,2.5
		c2.6,2.6,6.1,4,9.7,4h0.3v5.5h-5.3c-4.2,0-7.8,3-8.6,7h-14.3c-0.3-8.2-2.9-16.3-7.3-23c-2.1-3.2-3.2-6.9-3.2-10.7
		C235.9,1913.7,245.6,1904.4,257.6,1905.7z"/>
</g>
</svg>
