<?xml version="1.0" encoding="utf-8"?>
<!-- Generator: Adobe Illustrator 25.2.3, SVG Export Plug-In . SVG Version: 6.00 Build 0)  -->
<svg version="1.1" id="Layer_1" xmlns="http://www.w3.org/2000/svg" xmlns:xlink="http://www.w3.org/1999/xlink" x="0px" y="0px"
	 viewBox="0 0 133.2 113.9" style="enable-background:new 0 0 133.2 113.9;" xml:space="preserve">
<style type="text/css">
	.st0{fill:#2190CB;}
	.st1{fill:#FFFFFF;}
</style>
<g id="Group_53" transform="translate(-177.685 -1882.097)">
	<path id="Polygon_2_copy_7" class="st0" d="M310.9,1882.1L177.7,1913l97.9,83L310.9,1882.1z"/>
	<g>
		<path class="st1" d="M287.7,1928.8c0-7.1-2.8-13.8-7.8-18.8c-0.3-0.3-0.8-0.3-1.1,0l-28.1,28.1c-2.1-1.1-4-0.8-6.2-0.4
			c-1-3.6-3.5-5-3.6-5c-0.4-0.2-0.9-0.1-1.1,0.3c-0.2,0.4-0.1,0.9,0.3,1.1c0,0,1.7,1,2.6,3.4c-2.6-0.6-5.4,0.2-7.2,2.1
			c-2.5-9.3,0.5-23.2,12.4-23.2c5.3,0,9.9,3.5,11.7,8.4c0.1,0.4,0.6,0.6,1,0.5c0.4-0.1,0.6-0.6,0.5-1c-1-2.9-2.9-5.4-5.4-7.1
			c0.2-1.2,0.7-2.3,1.4-3.3l1.1-1.5c1-1.4-0.6-3.4-2.2-2.6l-2.5,1.2c-0.1-2.2,0.5-3.8,1.8-5.5c0.4-0.6,0.4-1.3-0.1-1.8
			c-0.4-0.5-1.1-0.7-1.8-0.4c-2.2,1-4.4,1.9-5.6,4.3c-1.2-2.3-3.4-3.3-5.6-4.3c-0.6-0.3-1.3-0.1-1.8,0.4c-0.4,0.5-0.5,1.3-0.1,1.8
			c1.3,1.7,1.9,3.4,1.8,5.5l-2.5-1.2c-1.6-0.7-3.2,1.2-2.2,2.6l1.1,1.5c0.7,1,1.2,2.2,1.4,3.4c-7.4,5-8.2,16.2-5.6,24
			c-2,3.3-2.1,8.4-0.4,11.9c0.2,0.4,0.7,0.6,1.1,0.4s0.6-0.7,0.4-1.1c-1.9-3.8-1.4-10.3,2.7-12.7c1.8-1,3.3-0.8,5.2-0.4
			c0.1,0.5,0.1,1,0.1,1.6c0,0.4,0.4,0.8,0.8,0.8s0.8-0.4,0.8-0.8c0-0.5,0-1.1-0.1-1.5c1.9-0.3,3.5-0.7,5.3,0.3
			c5.1,2.9,5.1,12.8,0,15.7c-1.4,0.8-3.2,1-4.7,0.4c-0.9-0.3-1.8-0.3-2.7,0c-1.7,0.5-3.5,0.3-5-0.7c-0.4-0.2-0.9-0.1-1.1,0.2
			c-0.2,0.4-0.1,0.9,0.2,1.1c1.9,1.3,4.2,1.6,6.4,0.9c0.5-0.2,1.1-0.2,1.7,0c2,0.7,4.2,0.5,6-0.6c0.6-0.4,1.2-0.8,1.7-1.3
			c1.9,1.5,4.2,2.3,6.6,2.3c2.7,0,5.2-1,7.1-2.7c5.2-1,9.9-3.5,13.7-7.3C284.9,1942.6,287.7,1935.9,287.7,1928.8L287.7,1928.8z
			 M239.8,1912.8l-1.1-1.5c-0.1-0.2,0-0.3,0.2-0.2c1.2,0.5,2.5,1,3.6,1.7c0.2,0.1,0.6,0.1,0.8,0c0.2-0.1,0.4-0.4,0.4-0.7
			c0-2.8-0.1-5-1.8-7.4c2.6,1.2,5.1,2.6,5.1,5.9c0,0.4,0.4,0.8,0.8,0.8c0.4,0,0.8-0.4,0.8-0.8c0-3.3,2.4-4.7,5.1-5.9
			c-1.8,2.3-1.8,4.6-1.8,7.4c0,0.3,0.1,0.5,0.4,0.7c0.2,0.1,0.5,0.2,0.8,0c1.2-0.6,2.4-1.1,3.6-1.7c0.2,0,0.3,0.1,0.2,0.2l-1.1,1.5
			c-0.7,1-1.3,2.2-1.6,3.4c-1.9-1-4.1-1.5-6.3-1.5c-2.2,0-4.5,0.5-6.5,1.6C241.1,1915,240.6,1913.9,239.8,1912.8z M253.6,1954.1
			c2.6-3.8,2.5-10.4-0.5-14c1.7-1.5,3.7-2.3,6-2.3c5,0,9.1,4.1,9.1,9.1s-4.1,9.1-9.1,9.1C257.2,1956,255.2,1955.3,253.6,1954.1
			L253.6,1954.1z M268.1,1952.8c0.7-1,1.1-2.1,1.4-3.2c2.8-1.1,5.3-2.8,7.4-4.9c3.1-3.1,5.3-7.1,6.1-11.4c0.1-0.4-0.2-0.9-0.6-0.9
			c-0.4-0.1-0.9,0.2-0.9,0.6c-0.8,4-2.8,7.7-5.7,10.6c-1.8,1.8-3.8,3.2-6,4.2c0.4-6.1-4.5-11.5-10.6-11.5c-2.6,0-5.1,0.9-7,2.6
			l24.2-24.2c3.6,3.9,5.6,9,5.5,14.4c0,0.4,0.4,0.8,0.8,0.8c0.4,0,0.8-0.4,0.8-0.8c0.1-5.8-2.1-11.3-6-15.5l1.8-1.8
			c4.4,4.7,6.8,10.7,6.8,17.1c0,6.7-2.6,13-7.3,17.7C275.8,1949.5,272.1,1951.6,268.1,1952.8L268.1,1952.8z"/>
		<path class="st1" d="M271.2,1937.8c-0.3-0.3-0.8-0.3-1.1,0c-0.3,0.3-0.3,0.8,0,1.1l1.2,1.2c0.2,0.2,0.4,0.2,0.6,0.2
			s0.4-0.1,0.6-0.2c0.3-0.3,0.3-0.8,0-1.1L271.2,1937.8z"/>
		<path class="st1" d="M275.6,1933.8l-1.6-0.7c-0.4-0.2-0.9,0-1.1,0.4c-0.2,0.4,0,0.9,0.4,1.1l1.6,0.7c0.1,0,0.2,0.1,0.3,0.1
			c0.3,0,0.6-0.2,0.7-0.5C276.2,1934.5,276,1934,275.6,1933.8L275.6,1933.8z"/>
		<path class="st1" d="M276.6,1927.9l-1.7-0.1c0,0,0,0,0,0c-0.4,0-0.8,0.3-0.8,0.8c0,0.4,0.3,0.8,0.8,0.8l1.7,0.1c0,0,0,0,0,0
			c0.4,0,0.8-0.3,0.8-0.8C277.4,1928.3,277,1927.9,276.6,1927.9z"/>
		<path class="st1" d="M274,1924c0.1,0,0.2,0,0.3,0l1.6-0.5c0.4-0.1,0.6-0.6,0.5-1c-0.1-0.4-0.6-0.6-1-0.5l-1.6,0.5
			c-0.4,0.1-0.6,0.6-0.5,1C273.4,1923.8,273.7,1924,274,1924z"/>
		<path class="st1" d="M247.8,1926.2c0.2,0,0.4-0.1,0.6-0.2l1.8-1.8c0.3-0.3,0.3-0.8,0-1.1s-0.8-0.3-1.1,0l-1.2,1.2l-1.2-1.2
			c-0.3-0.3-0.8-0.3-1.1,0c-0.3,0.3-0.3,0.8,0,1.1l1.8,1.8C247.4,1926.1,247.6,1926.2,247.8,1926.2L247.8,1926.2z"/>
		<path class="st1" d="M255.1,1926.2c0.2,0,0.4-0.1,0.6-0.2l1.8-1.8c0.3-0.3,0.3-0.8,0-1.1c-0.3-0.3-0.8-0.3-1.1,0l-1.2,1.2
			l-1.2-1.2c-0.3-0.3-0.8-0.3-1.1,0c-0.3,0.3-0.3,0.8,0,1.1l1.8,1.8C254.7,1926.1,254.9,1926.2,255.1,1926.2L255.1,1926.2z"/>
		<path class="st1" d="M245.3,1928.1l-1.2,1.2l-1.2-1.2c-0.3-0.3-0.8-0.3-1.1,0c-0.3,0.3-0.3,0.8,0,1.1l1.8,1.8
			c0.2,0.2,0.4,0.2,0.6,0.2c0.2,0,0.4-0.1,0.6-0.2l1.8-1.8c0.3-0.3,0.3-0.8,0-1.1C246.2,1927.8,245.7,1927.8,245.3,1928.1
			L245.3,1928.1z"/>
		<path class="st1" d="M250.8,1931c0.2,0.2,0.4,0.2,0.6,0.2c0.2,0,0.4-0.1,0.6-0.2l1.8-1.8c0.3-0.3,0.3-0.8,0-1.1
			c-0.3-0.3-0.8-0.3-1.1,0l-1.2,1.2l-1.2-1.2c-0.3-0.3-0.8-0.3-1.1,0c-0.3,0.3-0.3,0.8,0,1.1L250.8,1931z"/>
		<circle class="st1" cx="261" cy="1941.2" r="0.8"/>
	</g>
</g>
</svg>
