<svg xmlns="http://www.w3.org/2000/svg" width="58.999" height="89" viewBox="0 0 58.999 89">
  <g id="Vector_Smart_Object" data-name="Vector Smart Object" transform="translate(-3082.093 -3785.88)">
    <g id="Group_54" data-name="Group 54">
      <path id="Path_117" data-name="Path 117" d="M3087.166,3828.5v-16.9a24.427,24.427,0,0,1,48.854,0v9.388H3128.5V3811.6a16.911,16.911,0,0,0-33.822,0v16.9" fill="none" stroke="#fff" stroke-linecap="round" stroke-linejoin="round" stroke-width="2.63"/>
      <path id="Rectangle_35" data-name="Rectangle 35" d="M3.757,0H52.613a3.757,3.757,0,0,1,3.757,3.757V37.55a7.513,7.513,0,0,1-7.513,7.513H7.513A7.513,7.513,0,0,1,0,37.55V3.757A3.757,3.757,0,0,1,3.757,0Z" transform="translate(3083.408 3828.502)" fill="none" stroke="#fff" stroke-linecap="round" stroke-linejoin="round" stroke-width="2.63"/>
      <path id="Path_118" data-name="Path 118" d="M3117.229,3845.4a5.637,5.637,0,1,0-8.5,4.829l-2.773,8.314h11.274l-2.773-8.314A5.614,5.614,0,0,0,3117.229,3845.4Z" fill="none" stroke="#fff" stroke-linecap="round" stroke-linejoin="round" stroke-width="2.63"/>
    </g>
  </g>
</svg>
