<svg xmlns="http://www.w3.org/2000/svg" width="67.995" height="89.552" viewBox="0 0 67.995 89.552">
  <g id="Vector_Smart_Object" data-name="Vector Smart Object" transform="translate(-550.014 -9914.484)">
    <g id="Group_39" data-name="Group 39">
      <path id="Path_92" data-name="Path 92" d="M567.658,9964.62l-13.2,13.144a10.586,10.586,0,0,0,0,15.021h0a10.7,10.7,0,0,0,15.087,0l28.289-28.165a10.7,10.7,0,0,1,15.087,0h0a10.586,10.586,0,0,1,0,15.021l-22.631,22.531" fill="none" stroke="#fff" stroke-linecap="round" stroke-linejoin="round" stroke-width="2.634"/>
      <line id="Line_91" data-name="Line 91" x2="3.772" y2="3.755" transform="translate(569.544 9958.987)" fill="none" stroke="#fff" stroke-linecap="round" stroke-linejoin="round" stroke-width="2.634"/>
      <line id="Line_92" data-name="Line 92" x2="7.544" y2="7.511" transform="translate(571.43 9953.354)" fill="none" stroke="#fff" stroke-linecap="round" stroke-linejoin="round" stroke-width="2.634"/>
      <line id="Line_93" data-name="Line 93" x2="11.315" y2="11.266" transform="translate(573.316 9947.722)" fill="none" stroke="#fff" stroke-linecap="round" stroke-linejoin="round" stroke-width="2.634"/>
      <path id="Path_93" data-name="Path 93" d="M592.175,9925.19l15.087,15.021,9.43-9.388L601.6,9915.8S592.647,9925.19,592.175,9925.19Z" fill="none" stroke="#fff" stroke-linecap="round" stroke-linejoin="round" stroke-width="2.634"/>
      <line id="Line_94" data-name="Line 94" x1="3.772" y2="3.755" transform="translate(601.605 9919.557)" fill="none" stroke="#fff" stroke-linecap="round" stroke-linejoin="round" stroke-width="2.634"/>
      <line id="Line_95" data-name="Line 95" x1="3.772" y2="3.755" transform="translate(605.376 9923.313)" fill="none" stroke="#fff" stroke-linecap="round" stroke-linejoin="round" stroke-width="2.634"/>
      <line id="Line_96" data-name="Line 96" x1="3.772" y2="3.755" transform="translate(609.148 9927.067)" fill="none" stroke="#fff" stroke-linecap="round" stroke-linejoin="round" stroke-width="2.634"/>
      <path id="Path_94" data-name="Path 94" d="M595.947,9930.823l-7.544,7.51,5.658,5.634,7.544-7.511" fill="none" stroke="#fff" stroke-linecap="round" stroke-linejoin="round" stroke-width="2.634"/>
      <path id="Path_95" data-name="Path 95" d="M607.262,9940.211l1.886,1.878-15.087,15.021h-3.772L575.2,9942.089v-3.756l15.087-15.021,1.886,1.878" fill="none" stroke="#fff" stroke-linecap="round" stroke-linejoin="round" stroke-width="2.634"/>
      <line id="Line_97" data-name="Line 97" x1="1.886" y2="1.878" transform="translate(588.403 9942.089)" fill="none" stroke="#fff" stroke-linecap="round" stroke-linejoin="round" stroke-width="2.634"/>
    </g>
  </g>
</svg>
