<svg xmlns="http://www.w3.org/2000/svg" width="85.009" height="88.997" viewBox="0 0 85.009 88.997">
  <g id="Vector_Smart_Object" data-name="Vector Smart Object" transform="translate(-3056.241 -11272.021)">
    <g id="Group_36" data-name="Group 36">
      <g id="Group_35" data-name="Group 35">
        <g id="Group_34" data-name="Group 34">
          <ellipse id="Ellipse_29" data-name="Ellipse 29" cx="5.617" cy="5.633" rx="5.617" ry="5.633" transform="translate(3098.746 11333.418)" fill="none" stroke="#fff" stroke-linecap="round" stroke-linejoin="round" stroke-width="2.625"/>
          <ellipse id="Ellipse_30" data-name="Ellipse 30" cx="5.617" cy="5.633" rx="5.617" ry="5.633" transform="translate(3128.703 11318.396)" fill="none" stroke="#fff" stroke-linecap="round" stroke-linejoin="round" stroke-width="2.625"/>
          <ellipse id="Ellipse_31" data-name="Ellipse 31" cx="5.617" cy="5.633" rx="5.617" ry="5.633" transform="translate(3128.703 11348.438)" fill="none" stroke="#fff" stroke-linecap="round" stroke-linejoin="round" stroke-width="2.625"/>
          <line id="Line_83" data-name="Line 83" y1="9.388" x2="18.724" transform="translate(3109.98 11325.907)" fill="none" stroke="#fff" stroke-linecap="round" stroke-linejoin="round" stroke-width="2.625"/>
          <line id="Line_84" data-name="Line 84" x2="18.724" y2="9.388" transform="translate(3109.98 11342.806)" fill="none" stroke="#fff" stroke-linecap="round" stroke-linejoin="round" stroke-width="2.625"/>
        </g>
      </g>
      <ellipse id="Ellipse_32" data-name="Ellipse 32" cx="7.489" cy="7.511" rx="7.489" ry="7.511" transform="translate(3091.582 11277.089)" fill="none" stroke="#fff" stroke-linecap="round" stroke-linejoin="round" stroke-width="2.625"/>
      <path id="Path_87" data-name="Path 87" d="M3080.027,11359.705l2.194-29.791h1.423a4.133,4.133,0,0,0,3.842-4.784l-2.483-21.811c-.483-4.258-3.778-7.454-7.684-7.454h-9.564c-3.906,0-7.2,3.2-7.684,7.454l-2.483,21.811a4.133,4.133,0,0,0,3.842,4.784h1.423l2.195,29.791Z" fill="none" stroke="#fff" stroke-linecap="round" stroke-linejoin="round" stroke-width="2.625"/>
      <ellipse id="Ellipse_33" data-name="Ellipse 33" cx="7.489" cy="7.511" rx="7.489" ry="7.511" transform="translate(3065.048 11273.333)" fill="none" stroke="#fff" stroke-linecap="round" stroke-linejoin="round" stroke-width="2.625"/>
      <path id="Path_88" data-name="Path 88" d="M3090.111,11335.293l1.471,20.656h14.979l.287-4.027" fill="none" stroke="#fff" stroke-linecap="round" stroke-linejoin="round" stroke-width="2.625"/>
      <path id="Path_89" data-name="Path 89" d="M3113.486,11325.137l-2.359-18.937a7.5,7.5,0,0,0-7.433-6.579h-9.246a7.451,7.451,0,0,0-2.494.443" fill="none" stroke="#fff" stroke-linecap="round" stroke-linejoin="round" stroke-width="2.625"/>
    </g>
  </g>
</svg>
