<svg xmlns="http://www.w3.org/2000/svg" width="108.002" height="89" viewBox="0 0 108.002 89">
  <g id="Vector_Smart_Object" data-name="Vector Smart Object" transform="translate(-1606.619 -12642.785)">
    <g id="Group_43" data-name="Group 43">
      <rect id="Rectangle_11" data-name="Rectangle 11" width="105.133" height="38.28" rx="9.564" transform="translate(1608.053 12668.146)" fill="none" stroke="#fff" stroke-linecap="round" stroke-linejoin="round" stroke-width="2.869"/>
      <g id="Group_42" data-name="Group 42">
        <line id="Line_98" data-name="Line 98" y2="23.925" transform="translate(1660.62 12644.221)" fill="none" stroke="#fff" stroke-linecap="round" stroke-linejoin="round" stroke-width="2.871"/>
        <line id="Line_99" data-name="Line 99" y1="23.925" transform="translate(1660.62 12706.425)" fill="none" stroke="#fff" stroke-linecap="round" stroke-linejoin="round" stroke-width="2.871"/>
        <g id="Group_40" data-name="Group 40">
          <path id="Path_96" data-name="Path 96" d="M1682,12668.146c-3.914-14.168-12-23.925-21.38-23.925s-17.471,9.757-21.38,23.925" fill="none" stroke="#fff" stroke-linecap="round" stroke-linejoin="round" stroke-width="2.869"/>
          <path id="Path_97" data-name="Path 97" d="M1639.239,12706.425c3.909,14.168,12,23.925,21.38,23.925s17.466-9.757,21.38-23.925" fill="none" stroke="#fff" stroke-linecap="round" stroke-linejoin="round" stroke-width="2.869"/>
        </g>
        <g id="Group_41" data-name="Group 41">
          <path id="Path_98" data-name="Path 98" d="M1699.1,12668.146a42.917,42.917,0,0,0-76.971,0" fill="none" stroke="#fff" stroke-linecap="round" stroke-linejoin="round" stroke-width="2.869"/>
          <path id="Path_99" data-name="Path 99" d="M1622.131,12706.425a42.917,42.917,0,0,0,76.971,0" fill="none" stroke="#fff" stroke-linecap="round" stroke-linejoin="round" stroke-width="2.869"/>
        </g>
      </g>
      <path id="Path_100" data-name="Path 100" d="M1651.062,12677.716l4.779,19.14,4.779-14.354,4.779,14.354,4.779-19.14" fill="none" stroke="#fff" stroke-linecap="round" stroke-linejoin="round" stroke-width="2.869"/>
      <path id="Path_101" data-name="Path 101" d="M1622.389,12677.716l4.779,19.14,4.779-14.354,4.779,14.354,4.779-19.14" fill="none" stroke="#fff" stroke-linecap="round" stroke-linejoin="round" stroke-width="2.869"/>
      <path id="Path_102" data-name="Path 102" d="M1679.734,12677.716l4.779,19.14,4.779-14.354,4.779,14.354,4.779-19.14" fill="none" stroke="#fff" stroke-linecap="round" stroke-linejoin="round" stroke-width="2.869"/>
    </g>
  </g>
</svg>
