<svg xmlns="http://www.w3.org/2000/svg" width="70.004" height="88.996" viewBox="0 0 70.004 88.996">
  <g id="Vector_Smart_Object" data-name="Vector Smart Object" transform="translate(-187.725 -9914.489)">
    <g id="Group_18" data-name="Group 18">
      <g id="Group_15" data-name="Group 15">
        <ellipse id="Ellipse_22" data-name="Ellipse 22" cx="33.69" cy="33.797" rx="33.69" ry="33.797" transform="translate(189.037 9915.802)" fill="none" stroke="#fff" stroke-linecap="round" stroke-linejoin="round" stroke-width="2.625"/>
        <path id="Path_62" data-name="Path 62" d="M202.221,9923.151c0,1.16,3.717.525,4.395,1.468,1.284,1.787-.505,6.673,0,8.817a22.562,22.562,0,0,0,2.927,5.877c3.635,5.058,17.579,11.4,17.579,17.635,0,1.036-2.931,1.9-2.931,2.937,0,3.117,7.6,5.938,8.789,8.817a11.882,11.882,0,0,1,0,5.878c-.764,2.534-5.765,8.52-5.765,8.52" fill="none" stroke="#fff" stroke-linecap="round" stroke-linejoin="round" stroke-width="2.625"/>
        <path id="Path_63" data-name="Path 63" d="M221.264,9915.8c0,1.469-.562,4.521,0,5.877.4.962,1.894,2.94,2.927,2.94s1.894-2.94,2.931-2.94,2.089,2.332,2.931,2.94c1.325.961,5.6,1.318,5.858,2.937.165,1.025-2.325,2.1-2.931,2.94-1.913,2.666-3.073,10.026-5.858,11.758-1.247.77-5.3-1.359-5.858,0-1.19,2.877,5.918,7.619,8.789,8.814,2.029.844,6.757-.842,8.786,0,.958.4,2.048,2.4,2.931,2.939,1.973,1.225,7.434,1.052,8.789,2.94,1.714,2.385,0,11.754,0,11.754" fill="none" stroke="#fff" stroke-linecap="round" stroke-linejoin="round" stroke-width="2.625"/>
      </g>
      <g id="Group_17" data-name="Group 17">
        <g id="Group_16" data-name="Group 16">
          <path id="Path_64" data-name="Path 64" d="M226.471,9994.662v-3.755h-7.487v3.755h-3.743v7.511h14.973v-7.511Z" fill="none" stroke="#fff" stroke-linecap="round" stroke-linejoin="round" stroke-width="2.625"/>
          <line id="Line_70" data-name="Line 70" y1="7.511" transform="translate(222.727 9983.396)" fill="none" stroke="#fff" stroke-linecap="round" stroke-linejoin="round" stroke-width="2.629"/>
          <line id="Line_71" data-name="Line 71" x2="18.717" transform="translate(230.214 9998.418)" fill="none" stroke="#fff" stroke-linecap="round" stroke-linejoin="round" stroke-width="2.62"/>
          <line id="Line_72" data-name="Line 72" x1="18.717" transform="translate(196.524 9998.418)" fill="none" stroke="#fff" stroke-linecap="round" stroke-linejoin="round" stroke-width="2.62"/>
        </g>
      </g>
    </g>
  </g>
</svg>
