<svg xmlns="http://www.w3.org/2000/svg" width="89" height="89" viewBox="0 0 89 89">
  <g id="Vector_Smart_Object" data-name="Vector Smart Object" transform="translate(-3764.465 -4332.967)">
    <g id="Group_30" data-name="Group 30">
      <g id="Group_26" data-name="Group 26">
        <g id="Group_25" data-name="Group 25">
          <rect id="Rectangle_7" data-name="Rectangle 7" width="86.256" height="70.573" rx="7.841" transform="translate(3765.837 4334.339)" fill="none" stroke="#fff" stroke-linecap="round" stroke-linejoin="round" stroke-width="2.744"/>
          <path id="Path_72" data-name="Path 72" d="M3836.41,4420.595h-54.89a7.839,7.839,0,0,1,7.842-7.841h39.207a7.839,7.839,0,0,1,7.841,7.841Z" fill="none" stroke="#fff" stroke-linecap="round" stroke-linejoin="round" stroke-width="2.744"/>
          <line id="Line_79" data-name="Line 79" x2="86.256" transform="translate(3765.837 4393.15)" fill="none" stroke="#fff" stroke-linecap="round" stroke-linejoin="round" stroke-width="2.744"/>
          <rect id="Rectangle_8" data-name="Rectangle 8" transform="translate(3840.33 4397.07)" fill="none" stroke="#fff" stroke-linecap="round" stroke-linejoin="round" stroke-width="2.744"/>
          <line id="Line_80" data-name="Line 80" y1="7.841" transform="translate(3805.044 4404.912)" fill="none" stroke="#fff" stroke-linecap="round" stroke-linejoin="round" stroke-width="2.744"/>
          <line id="Line_81" data-name="Line 81" y1="7.841" transform="translate(3812.885 4404.912)" fill="none" stroke="#fff" stroke-linecap="round" stroke-linejoin="round" stroke-width="2.744"/>
        </g>
      </g>
      <g id="Group_29" data-name="Group 29">
        <g id="Group_28" data-name="Group 28">
          <path id="Path_73" data-name="Path 73" d="M3808.965,4385.309s-15.683-6.536-15.683-11.762v-23.524l15.683-3.921,15.683,3.921v23.524C3824.647,4378.772,3808.965,4385.309,3808.965,4385.309Z" fill="none" stroke="#fff" stroke-linecap="round" stroke-linejoin="round" stroke-width="2.744"/>
          <g id="Group_27" data-name="Group 27">
            <path id="Path_74" data-name="Path 74" d="M3808.965,4354.184l-7.842,1.96v9.561h7.842Z" fill="none" stroke="#fff" stroke-linecap="round" stroke-linejoin="round" stroke-width="2.744"/>
            <path id="Path_75" data-name="Path 75" d="M3808.965,4365.705V4376.7a39.957,39.957,0,0,0,7.841-4.779v-6.214Z" fill="none" stroke="#fff" stroke-linecap="round" stroke-linejoin="round" stroke-width="2.744"/>
          </g>
        </g>
      </g>
    </g>
  </g>
</svg>
