<svg xmlns="http://www.w3.org/2000/svg" width="88.996" height="89.082" viewBox="0 0 88.996 89.082">
  <g id="Vector_Smart_Object" data-name="Vector Smart Object" transform="translate(-3794.523 -12173.284)">
    <g id="Group_57" data-name="Group 57">
      <path id="Path_119" data-name="Path 119" d="M3875.858,12252.855l-6.745-1.682-.768-3.069a10.366,10.366,0,0,0,3.334-6.726h.079a1.636,1.636,0,0,0,1.622-1.43l.41-3.268a1.631,1.631,0,0,0-1.607-1.829l.2-4.086.821-.818c1.058-1.123,1.058-2.467,0-4.082s-2.921-2.448-5.514-2.448a9.852,9.852,0,0,0-5.943,1.634c-6.594.063-7.362,2.8-7.362,5.715,0,1.021.384,4.078.384,4.078h-.17a1.637,1.637,0,0,0-1.622,1.837l.41,3.268a1.636,1.636,0,0,0,1.622,1.43h.267a10.406,10.406,0,0,0,3.181,6.595l-.8,3.2-6.745,1.682a8.363,8.363,0,0,0-6.345,8.111v0H3882.2v0A8.362,8.362,0,0,0,3875.858,12252.855Z" fill="none" stroke="#fff" stroke-linecap="round" stroke-linejoin="round" stroke-width="2.632"/>
      <g id="Group_56" data-name="Group 56">
        <g id="Group_55" data-name="Group 55">
          <path id="Path_120" data-name="Path 120" d="M3848.131,12224.672c-5.8-5.171-7.234-7.483-7.716-9.159a15.067,15.067,0,0,0-18.63-10.285c-7.99,2.291-12.089,10.484-10.309,18.585,3.8,17.285,1.3,22.959-8.111,25.893" fill="none" stroke="#fff" stroke-linecap="round" stroke-linejoin="round" stroke-width="2.632"/>
          <path id="Path_121" data-name="Path 121" d="M3837.239,12257.215c-1.923-1.915-4.471-7.51-9.409-7.51s-5.645,11.266-5.645,11.266" fill="none" stroke="#fff" stroke-linecap="round" stroke-linejoin="round" stroke-width="2.632"/>
          <path id="Path_122" data-name="Path 122" d="M3818.421,12238.438c1.8,5.634-1.49,16.82-7.527,18.776" fill="none" stroke="#fff" stroke-linecap="round" stroke-linejoin="round" stroke-width="2.632"/>
          <path id="Path_123" data-name="Path 123" d="M3859.821,12214.029c-8.705-2.816-8.939-24.409-33.873-24.409a30.075,30.075,0,0,0-30.109,30.042" fill="none" stroke="#fff" stroke-linecap="round" stroke-linejoin="round" stroke-width="2.632"/>
          <path id="Path_124" data-name="Path 124" d="M3795.839,12227.173c0,1.878,1.882,5.633,1.882,5.633" fill="none" stroke="#fff" stroke-linecap="round" stroke-linejoin="round" stroke-width="2.632"/>
          <path id="Path_125" data-name="Path 125" d="M3797.721,12193.376c2-3.286,10.7-11.267,26.345-11.267s26.225,7.98,28.228,11.267" fill="none" stroke="#fff" stroke-linecap="round" stroke-linejoin="round" stroke-width="2.632"/>
          <path id="Path_126" data-name="Path 126" d="M3807.13,12178.354c4.546-2.035,5.329-3.755,16.936-3.755,12.349,0,15.679,2.035,20.7,3.755" fill="none" stroke="#fff" stroke-linecap="round" stroke-linejoin="round" stroke-width="2.632"/>
          <path id="Path_127" data-name="Path 127" d="M3854.262,12218.878c-3.139-2.588-6.485-5.39-6.71-5.765a22.6,22.6,0,0,0-41.363-4.36,22.357,22.357,0,0,0-1.946,17.136c2.83,9.809-1.7,15.032-6.887,16.647" fill="none" stroke="#fff" stroke-linecap="round" stroke-linejoin="round" stroke-width="2.632"/>
          <path id="Path_128" data-name="Path 128" d="M3846.046,12233.265c-5.6-4.916-11.49-10.917-12.864-15.679a7.528,7.528,0,0,0-14.471,4.153c2.924,10.146,13.135,19.534,23.286,27.736" fill="none" stroke="#fff" stroke-linecap="round" stroke-linejoin="round" stroke-width="2.632"/>
          <path id="Path_129" data-name="Path 129" d="M3825.948,12219.662c2.812,9.756,13.982,18.164,20.418,23.039" fill="none" stroke="#fff" stroke-linecap="round" stroke-linejoin="round" stroke-width="2.632"/>
        </g>
        <path id="Path_130" data-name="Path 130" d="M3856.058,12197.131a46.206,46.206,0,0,1,3.764,7.511" fill="none" stroke="#fff" stroke-linecap="round" stroke-linejoin="round" stroke-width="2.632"/>
      </g>
    </g>
  </g>
</svg>
