<svg xmlns="http://www.w3.org/2000/svg" width="78" height="89.006" viewBox="0 0 78 89.006">
  <g id="Vector_Smart_Object" data-name="Vector Smart Object" transform="translate(-546.942 -11260.751)">
    <g id="Group_51" data-name="Group 51">
      <path id="Path_107" data-name="Path 107" d="M612.319,11265.823h-7.536v-3.756H567.1v3.756h-7.536a3.763,3.763,0,0,0-3.768,3.755v78.86h22.609v-26.286h15.072v26.286h22.609v-78.86A3.763,3.763,0,0,0,612.319,11265.823Z" fill="none" stroke="#fff" stroke-linecap="round" stroke-linejoin="round" stroke-width="2.633"/>
      <rect id="Rectangle_22" data-name="Rectangle 22" width="7.536" height="11.266" transform="translate(563.333 11322.152)" fill="none" stroke="#fff" stroke-linecap="round" stroke-linejoin="round" stroke-width="2.633"/>
      <rect id="Rectangle_23" data-name="Rectangle 23" width="7.536" height="11.266" transform="translate(601.014 11322.152)" fill="none" stroke="#fff" stroke-linecap="round" stroke-linejoin="round" stroke-width="2.633"/>
      <rect id="Rectangle_24" data-name="Rectangle 24" width="7.536" height="11.266" transform="translate(563.333 11299.62)" fill="none" stroke="#fff" stroke-linecap="round" stroke-linejoin="round" stroke-width="2.633"/>
      <rect id="Rectangle_25" data-name="Rectangle 25" width="7.536" height="11.266" transform="translate(601.014 11299.62)" fill="none" stroke="#fff" stroke-linecap="round" stroke-linejoin="round" stroke-width="2.633"/>
      <rect id="Rectangle_26" data-name="Rectangle 26" width="7.536" height="11.266" transform="translate(563.333 11277.089)" fill="none" stroke="#fff" stroke-linecap="round" stroke-linejoin="round" stroke-width="2.633"/>
      <rect id="Rectangle_27" data-name="Rectangle 27" width="7.536" height="11.266" transform="translate(601.014 11277.089)" fill="none" stroke="#fff" stroke-linecap="round" stroke-linejoin="round" stroke-width="2.633"/>
      <rect id="Rectangle_28" data-name="Rectangle 28" width="7.536" height="11.266" transform="translate(582.174 11299.62)" fill="none" stroke="#fff" stroke-linecap="round" stroke-linejoin="round" stroke-width="2.633"/>
      <rect id="Rectangle_29" data-name="Rectangle 29" width="7.536" height="11.266" transform="translate(582.174 11277.089)" fill="none" stroke="#fff" stroke-linecap="round" stroke-linejoin="round" stroke-width="2.633"/>
      <line id="Line_111" data-name="Line 111" x2="7.536" transform="translate(548.261 11348.438)" fill="none" stroke="#fff" stroke-linecap="round" stroke-linejoin="round" stroke-width="2.638"/>
      <line id="Line_112" data-name="Line 112" x2="7.536" transform="translate(616.087 11348.438)" fill="none" stroke="#fff" stroke-linecap="round" stroke-linejoin="round" stroke-width="2.638"/>
    </g>
  </g>
</svg>
