<svg xmlns="http://www.w3.org/2000/svg" width="89" height="89" viewBox="0 0 89 89">
  <g id="Vector_Smart_Object" data-name="Vector Smart Object" transform="translate(-1803.095 -9914.487)">
    <g id="Group_14" data-name="Group 14">
      <g id="Group_13" data-name="Group 13">
        <line id="Line_63" data-name="Line 63" y2="33.797" transform="translate(1838.207 9915.802)" fill="none" stroke="#fff" stroke-linecap="round" stroke-linejoin="round" stroke-width="2.629"/>
        <line id="Line_64" data-name="Line 64" x2="22.532" transform="translate(1804.409 9949.6)" fill="none" stroke="#fff" stroke-linecap="round" stroke-linejoin="round" stroke-width="2.629"/>
        <line id="Line_65" data-name="Line 65" x2="52.574" transform="translate(1811.92 9930.823)" fill="none" stroke="#fff" stroke-linecap="round" stroke-linejoin="round" stroke-width="2.629"/>
        <line id="Line_66" data-name="Line 66" x2="11.266" transform="translate(1811.92 9968.376)" fill="none" stroke="#fff" stroke-linecap="round" stroke-linejoin="round" stroke-width="2.629"/>
        <path id="Path_59" data-name="Path 59" d="M1856.983,9949.6c0-18.668-8.408-33.8-18.776-33.8s-18.776,15.13-18.776,33.8a53.266,53.266,0,0,0,3.755,20.218" fill="none" stroke="#fff" stroke-linecap="round" stroke-linejoin="round" stroke-width="2.629"/>
        <path id="Path_60" data-name="Path 60" d="M1872,9949.6a33.8,33.8,0,1,0-48.819,30.244" fill="none" stroke="#fff" stroke-linecap="round" stroke-linejoin="round" stroke-width="2.629"/>
      </g>
      <path id="Path_61" data-name="Path 61" d="M1864.494,9949.6h18.776a7.508,7.508,0,0,1,7.511,7.51v30.043a7.508,7.508,0,0,1-7.511,7.51H1830.7a7.508,7.508,0,0,1-7.51-7.51v-30.043a7.508,7.508,0,0,1,7.51-7.51h33.8Z" fill="none" stroke="#fff" stroke-linecap="round" stroke-linejoin="round" stroke-width="2.629"/>
      <line id="Line_67" data-name="Line 67" x2="67.595" transform="translate(1823.186 9983.396)" fill="none" stroke="#fff" stroke-linecap="round" stroke-linejoin="round" stroke-width="2.629"/>
      <line id="Line_68" data-name="Line 68" y2="7.511" transform="translate(1856.983 9994.662)" fill="none" stroke="#fff" stroke-linecap="round" stroke-linejoin="round" stroke-width="2.629"/>
      <line id="Line_69" data-name="Line 69" x2="30.042" transform="translate(1841.962 10002.173)" fill="none" stroke="#fff" stroke-linecap="round" stroke-linejoin="round" stroke-width="2.629"/>
    </g>
  </g>
</svg>
