<svg xmlns="http://www.w3.org/2000/svg" width="89" height="89" viewBox="0 0 89 89">
  <g id="Vector_Smart_Object" data-name="Vector Smart Object" transform="translate(-2635.302 -12709.553)">
    <g id="Group_9" data-name="Group 9">
      <path id="Path_54" data-name="Path 54" d="M2692.8,12749.5l-7.026-1.756-.8-3.2a10.832,10.832,0,0,0,3.474-7.021h.082a1.706,1.706,0,0,0,1.69-1.494l.427-3.411a1.7,1.7,0,0,0-1.674-1.909l.208-4.266.855-.854c1.1-1.173,1.1-2.576,0-4.262s-3.042-2.557-5.744-2.557a10.242,10.242,0,0,0-6.191,1.706c-6.869.065-7.669,2.928-7.669,5.967,0,1.066.4,4.258.4,4.258h-.176a1.707,1.707,0,0,0-1.69,1.917l.427,3.411a1.706,1.706,0,0,0,1.69,1.494h.278a10.874,10.874,0,0,0,3.313,6.885l-.835,3.341-7.026,1.756a8.727,8.727,0,0,0-6.61,8.469v0h39.207v0A8.727,8.727,0,0,0,2692.8,12749.5Z" fill="none" stroke="#fff" stroke-linecap="round" stroke-linejoin="round" stroke-width="2.744"/>
      <g id="Group_8" data-name="Group 8">
        <rect id="Rectangle_1" data-name="Rectangle 1" width="86.256" height="86.256" rx="7.841" transform="translate(2636.674 12710.925)" fill="none" stroke="#fff" stroke-linecap="round" stroke-linejoin="round" stroke-width="2.744"/>
        <rect id="Rectangle_2" data-name="Rectangle 2" width="70.573" height="23.524" rx="7.841" transform="translate(2644.515 12765.815)" fill="none" stroke="#fff" stroke-linecap="round" stroke-linejoin="round" stroke-width="2.744"/>
        <line id="Line_47" data-name="Line 47" x2="7.841" y2="7.841" transform="translate(2652.357 12773.656)" fill="none" stroke="#fff" stroke-linecap="round" stroke-linejoin="round" stroke-width="2.744"/>
        <line id="Line_48" data-name="Line 48" y1="7.841" x2="7.841" transform="translate(2652.357 12773.656)" fill="none" stroke="#fff" stroke-linecap="round" stroke-linejoin="round" stroke-width="2.744"/>
        <line id="Line_49" data-name="Line 49" x2="7.841" y2="7.841" transform="translate(2668.04 12773.656)" fill="none" stroke="#fff" stroke-linecap="round" stroke-linejoin="round" stroke-width="2.744"/>
        <line id="Line_50" data-name="Line 50" y1="7.841" x2="7.841" transform="translate(2668.04 12773.656)" fill="none" stroke="#fff" stroke-linecap="round" stroke-linejoin="round" stroke-width="2.744"/>
        <line id="Line_51" data-name="Line 51" x2="7.841" y2="7.841" transform="translate(2683.722 12773.656)" fill="none" stroke="#fff" stroke-linecap="round" stroke-linejoin="round" stroke-width="2.744"/>
        <line id="Line_52" data-name="Line 52" y1="7.841" x2="7.841" transform="translate(2683.722 12773.656)" fill="none" stroke="#fff" stroke-linecap="round" stroke-linejoin="round" stroke-width="2.744"/>
        <line id="Line_53" data-name="Line 53" x2="7.841" y2="7.841" transform="translate(2699.405 12773.656)" fill="none" stroke="#fff" stroke-linecap="round" stroke-linejoin="round" stroke-width="2.744"/>
        <line id="Line_54" data-name="Line 54" y1="7.841" x2="7.841" transform="translate(2699.405 12773.656)" fill="none" stroke="#fff" stroke-linecap="round" stroke-linejoin="round" stroke-width="2.744"/>
      </g>
    </g>
  </g>
</svg>
