<svg xmlns="http://www.w3.org/2000/svg" width="89" height="89" viewBox="0 0 89 89">
  <g id="Vector_Smart_Object" data-name="Vector Smart Object" transform="translate(-901.829 -7390.943)">
    <g id="Group_53" data-name="Group 53">
      <g id="Group_52" data-name="Group 52">
        <path id="Path_108" data-name="Path 108" d="M980.127,7459.853H912.532a9.387,9.387,0,0,0-9.388,9.388h0a9.387,9.387,0,0,0,9.388,9.388h67.595a9.387,9.387,0,0,0,9.388-9.388h0A9.387,9.387,0,0,0,980.127,7459.853Z" fill="none" stroke="#fff" stroke-linecap="round" stroke-linejoin="round" stroke-width="2.629"/>
        <rect id="Rectangle_30" data-name="Rectangle 30" transform="translate(914.409 7471.118)" fill="none" stroke="#fff" stroke-linecap="round" stroke-linejoin="round" stroke-width="2.629"/>
        <circle id="Ellipse_35" data-name="Ellipse 35" cx="1.878" cy="1.878" r="1.878" transform="translate(978.249 7467.363)" fill="none" stroke="#fff" stroke-linecap="round" stroke-linejoin="round" stroke-width="2.629"/>
        <rect id="Rectangle_31" data-name="Rectangle 31" transform="translate(921.92 7471.118)" fill="none" stroke="#fff" stroke-linecap="round" stroke-linejoin="round" stroke-width="2.629"/>
        <path id="Path_109" data-name="Path 109" d="M980.127,7441.076H912.532a9.387,9.387,0,0,0-9.388,9.388h0a9.387,9.387,0,0,0,9.388,9.388h67.595a9.387,9.387,0,0,0,9.388-9.388h0A9.387,9.387,0,0,0,980.127,7441.076Z" fill="none" stroke="#fff" stroke-linecap="round" stroke-linejoin="round" stroke-width="2.629"/>
        <rect id="Rectangle_32" data-name="Rectangle 32" transform="translate(914.409 7452.342)" fill="none" stroke="#fff" stroke-linecap="round" stroke-linejoin="round" stroke-width="2.629"/>
        <circle id="Ellipse_36" data-name="Ellipse 36" cx="1.878" cy="1.878" r="1.878" transform="translate(978.249 7448.586)" fill="none" stroke="#fff" stroke-linecap="round" stroke-linejoin="round" stroke-width="2.629"/>
        <rect id="Rectangle_33" data-name="Rectangle 33" transform="translate(921.92 7452.342)" fill="none" stroke="#fff" stroke-linecap="round" stroke-linejoin="round" stroke-width="2.629"/>
      </g>
      <path id="Path_110" data-name="Path 110" d="M965.894,7406.028c-.409,0-.792.083-1.194.117a21.3,21.3,0,0,0-20.151-13.887c-11.788,0-21.345,9.246-21.345,20.654a10.332,10.332,0,1,0,0,20.654h42.69a13.776,13.776,0,1,0,0-27.538Z" fill="none" stroke="#fff" stroke-linecap="round" stroke-linejoin="round" stroke-width="2.629"/>
    </g>
  </g>
</svg>
