<svg xmlns="http://www.w3.org/2000/svg" width="116.006" height="88.607" viewBox="0 0 116.006 88.607">
  <g id="Vector_Smart_Object" data-name="Vector Smart Object" transform="translate(-1180.642 -13034.5)">
    <rect id="Rectangle_34" data-name="Rectangle 34" width="113.051" height="29.592" rx="9.847" transform="translate(1182.119 13092.038)" fill="none" stroke="#fff" stroke-linecap="round" stroke-linejoin="round" stroke-width="2.954"/>
    <line id="Line_113" data-name="Line 113" y1="34.524" transform="translate(1265.678 13057.514)" fill="none" stroke="#fff" stroke-linecap="round" stroke-linejoin="round" stroke-width="2.959"/>
    <ellipse id="Ellipse_37" data-name="Ellipse 37" cx="2.458" cy="2.466" rx="2.458" ry="2.466" transform="translate(1194.407 13104.368)" fill="#fff"/>
    <ellipse id="Ellipse_38" data-name="Ellipse 38" cx="2.458" cy="2.466" rx="2.458" ry="2.466" transform="translate(1209.153 13104.368)" fill="#fff"/>
    <ellipse id="Ellipse_39" data-name="Ellipse 39" cx="2.458" cy="2.466" rx="2.458" ry="2.466" transform="translate(1223.898 13104.368)" fill="#fff"/>
    <ellipse id="Ellipse_40" data-name="Ellipse 40" cx="2.458" cy="2.466" rx="2.458" ry="2.466" transform="translate(1238.644 13104.368)" fill="#fff"/>
    <line id="Line_114" data-name="Line 114" x2="24.576" transform="translate(1255.847 13106.834)" fill="none" stroke="#fff" stroke-linecap="round" stroke-linejoin="round" stroke-width="2.949"/>
    <path id="Path_111" data-name="Path 111" d="M1258.728,13064.489a9.887,9.887,0,0,1,0-13.949" fill="none" stroke="#fff" stroke-linecap="round" stroke-linejoin="round" stroke-width="2.954"/>
    <path id="Path_112" data-name="Path 112" d="M1272.628,13050.54a9.887,9.887,0,0,1,0,13.949" fill="none" stroke="#fff" stroke-linecap="round" stroke-linejoin="round" stroke-width="2.954"/>
    <path id="Path_113" data-name="Path 113" d="M1251.778,13071.462a19.761,19.761,0,0,1,0-27.895" fill="none" stroke="#fff" stroke-linecap="round" stroke-linejoin="round" stroke-width="2.954"/>
    <path id="Path_114" data-name="Path 114" d="M1279.578,13043.567a19.77,19.77,0,0,1,0,27.895" fill="none" stroke="#fff" stroke-linecap="round" stroke-linejoin="round" stroke-width="2.954"/>
    <path id="Path_115" data-name="Path 115" d="M1244.823,13078.44a29.667,29.667,0,0,1,0-41.852" fill="none" stroke="#fff" stroke-linecap="round" stroke-linejoin="round" stroke-width="2.954"/>
    <path id="Path_116" data-name="Path 116" d="M1286.533,13036.589a29.667,29.667,0,0,1,0,41.852" fill="none" stroke="#fff" stroke-linecap="round" stroke-linejoin="round" stroke-width="2.954"/>
  </g>
</svg>
