<svg xmlns="http://www.w3.org/2000/svg" width="105.011" height="78.989" viewBox="0 0 105.011 78.989">
  <g id="Vector_Smart_Object" data-name="Vector Smart Object" transform="translate(-3828.507 -6008.246)">
    <g id="Group_31" data-name="Group 31">
      <path id="Path_76" data-name="Path 76" d="M3931.962,6032.119l-26.582,17.853v-4.463a13.34,13.34,0,0,0-13.291-13.39h-48.734a13.34,13.34,0,0,0-13.291,13.39v26.78a13.34,13.34,0,0,0,13.291,13.39h48.734a13.34,13.34,0,0,0,13.291-13.39v-4.463l26.582,17.854Z" fill="none" stroke="#fff" stroke-linecap="round" stroke-linejoin="round" stroke-width="3.113"/>
      <path id="Path_77" data-name="Path 77" d="M3878.8,6032.119v-8.927a8.891,8.891,0,0,1,8.861-8.926h8.861" fill="none" stroke="#fff" stroke-linecap="round" stroke-linejoin="round" stroke-width="3.113"/>
      <path id="Path_78" data-name="Path 78" d="M3896.519,6018.729V6009.8h17.722a4.448,4.448,0,0,1,4.43,4.463h0a4.448,4.448,0,0,1-4.43,4.463Z" fill="none" stroke="#fff" stroke-linecap="round" stroke-linejoin="round" stroke-width="3.113"/>
      <path id="Path_79" data-name="Path 79" d="M3865.506,6032.119v-8.927a4.448,4.448,0,0,0-4.43-4.463h-17.722a4.448,4.448,0,0,0-4.43,4.463v8.927" fill="none" stroke="#fff" stroke-linecap="round" stroke-linejoin="round" stroke-width="3.113"/>
      <ellipse id="Ellipse_25" data-name="Ellipse 25" cx="8.861" cy="8.927" rx="8.861" ry="8.927" transform="translate(3843.354 6049.972)" fill="none" stroke="#fff" stroke-linecap="round" stroke-linejoin="round" stroke-width="3.113"/>
      <ellipse id="Ellipse_26" data-name="Ellipse 26" cx="8.861" cy="8.927" rx="8.861" ry="8.927" transform="translate(3874.367 6049.972)" fill="none" stroke="#fff" stroke-linecap="round" stroke-linejoin="round" stroke-width="3.113"/>
      <line id="Line_82" data-name="Line 82" x2="31.013" transform="translate(3852.215 6049.972)" fill="none" stroke="#fff" stroke-linecap="round" stroke-linejoin="round" stroke-width="3.101"/>
    </g>
  </g>
</svg>
