<svg xmlns="http://www.w3.org/2000/svg" width="133.18" height="113.906" viewBox="0 0 133.18 113.906">
  <g id="Group_59" data-name="Group 59" transform="translate(-912.685 -3707.097)">
    <path id="Polygon_2_copy_3" data-name="Polygon 2 copy 3" d="M1045.865,3707.1l-133.18,30.893L1010.614,3821Z" fill="#2190cb"/>
    <g id="Vector_Smart_Object" data-name="Vector Smart Object" transform="translate(968 3731)">
      <g id="Group_4" data-name="Group 4">
        <path id="Path_26" data-name="Path 26" d="M16.15,17.85H8.5c-.85,0-2.55.85-2.55,1.7v23.8h39.1V19.55a1.828,1.828,0,0,0-1.7-1.7h-8.5" fill="none" stroke="#fff" stroke-linecap="round" stroke-linejoin="round" stroke-width="1.7"/>
        <path id="Path_27" data-name="Path 27" d="M46.75,46.75H.85a3.656,3.656,0,0,0,3.4,3.4h42.5a3.656,3.656,0,0,0,3.4-3.4v-3.4h-1.7V17.85a3.656,3.656,0,0,0-3.4-3.4H34.85" fill="none" stroke="#fff" stroke-linecap="round" stroke-linejoin="round" stroke-width="1.7"/>
        <path id="Path_28" data-name="Path 28" d="M16.15,14.45H5.95a3.656,3.656,0,0,0-3.4,3.4v25.5" fill="none" stroke="#fff" stroke-linecap="round" stroke-linejoin="round" stroke-width="1.7"/>
        <circle id="Ellipse_3" data-name="Ellipse 3" cx="2.55" cy="2.55" r="2.55" transform="translate(22.95 11.05)" fill="none" stroke="#fff" stroke-linecap="round" stroke-linejoin="round" stroke-width="1.7"/>
        <line id="Line_13" data-name="Line 13" y2="6.8" transform="translate(25.5 24.65)" fill="none" stroke="#fff" stroke-linecap="round" stroke-linejoin="round" stroke-width="1.7"/>
        <line id="Line_14" data-name="Line 14" y2="1.7" transform="translate(31.45 29.75)" fill="none" stroke="#fff" stroke-linecap="round" stroke-linejoin="round" stroke-width="1.7"/>
        <line id="Line_15" data-name="Line 15" y2="1.7" transform="translate(19.55 29.75)" fill="none" stroke="#fff" stroke-linecap="round" stroke-linejoin="round" stroke-width="1.7"/>
        <path id="Path_29" data-name="Path 29" d="M28.9,29.75h5.95v-1.7c0-5.1-3.4-5.1-3.4-8.5v-8.5a7.446,7.446,0,0,0-1.7-5.1L25.5.85l-4.25,5.1a7.446,7.446,0,0,0-1.7,5.1v8.5c0,3.4-3.4,3.4-3.4,8.5v1.7H22.1" fill="none" stroke="#fff" stroke-linecap="round" stroke-linejoin="round" stroke-width="1.7"/>
        <path id="Path_30" data-name="Path 30" d="M39.95,39.95a3.381,3.381,0,0,0-5.137-2.909,2.537,2.537,0,0,0-5.04.129,5.094,5.094,0,0,0-8.546,0,2.537,2.537,0,0,0-5.041-.129A3.381,3.381,0,0,0,11.05,39.95" fill="none" stroke="#fff" stroke-linecap="round" stroke-linejoin="round" stroke-width="1.7"/>
      </g>
    </g>
  </g>
</svg>
