
            <svg xmlns="http://www.w3.org/2000/svg" width="131.702" height="131.351" viewBox="0 0 131.702 131.351">
                <g id="Vector_Smart_Object" data-name="Vector Smart Object" transform="translate(-0.474 -0.55)">
                  <g id="Group_489" data-name="Group 489">
                    <path id="Path_551" data-name="Path 551" d="M77.334,129.9l4.4-21.924c35.227-.092,44.166,6.907,46.235,13.118l2.2,8.807" fill="none" stroke="#1471b4" stroke-linecap="round" stroke-linejoin="round" stroke-width="3.303"/>
                    <path id="Path_552" data-name="Path 552" d="M2.477,129.9l2.2-8.807c2.2-6.605,11.008-13.21,46.235-13.21l4.4,22.017" fill="none" stroke="#1471b4" stroke-linecap="round" stroke-linejoin="round" stroke-width="3.303"/>
                    <line id="Line_14409" data-name="Line 14409" x2="8.807" transform="translate(50.914 55.042)" fill="none" stroke="#1471b4" stroke-linecap="round" stroke-linejoin="round" stroke-width="3.303"/>
                    <line id="Line_14410" data-name="Line 14410" y1="2.202" transform="translate(55.317 55.042)" fill="none" stroke="#1471b4" stroke-linecap="round" stroke-linejoin="round" stroke-width="3.303"/>
                    <line id="Line_14411" data-name="Line 14411" x2="8.807" transform="translate(72.931 55.042)" fill="none" stroke="#1471b4" stroke-linecap="round" stroke-linejoin="round" stroke-width="3.303"/>
                    <line id="Line_14412" data-name="Line 14412" y1="2.202" transform="translate(77.334 55.042)" fill="none" stroke="#1471b4" stroke-linecap="round" stroke-linejoin="round" stroke-width="3.303"/>
                    <circle id="Ellipse_7" data-name="Ellipse 7" cx="4.403" cy="4.403" r="4.403" transform="translate(61.922 107.882)" fill="none" stroke="#1471b4" stroke-linecap="round" stroke-linejoin="round" stroke-width="3.303"/>
                    <line id="Line_14413" data-name="Line 14413" y1="13.21" transform="translate(66.326 116.689)" fill="none" stroke="#1471b4" stroke-linecap="round" stroke-linejoin="round" stroke-width="3.303"/>
                    <path id="Path_553" data-name="Path 553" d="M96.288,71.418A8.807,8.807,0,0,1,90.4,86.77H77.187" fill="none" stroke="#1471b4" stroke-linecap="round" stroke-linejoin="round" stroke-width="3.303"/>
                    <circle id="Ellipse_8" data-name="Ellipse 8" cx="4.403" cy="4.403" r="4.403" transform="translate(68.527 82.32)" fill="none" stroke="#1471b4" stroke-linecap="round" stroke-linejoin="round" stroke-width="3.303"/>
                    <path id="Path_554" data-name="Path 554" d="M59.721,82.321h0a7.821,7.821,0,0,1-6.605-4.4" fill="none" stroke="#1471b4" stroke-linecap="round" stroke-linejoin="round" stroke-width="3.303"/>
                    <path id="Path_555" data-name="Path 555" d="M90.544,41.832s-8.807-8.807-8.807-17.613c-4.5,7.49-30.824,8.807-39.63,8.807,0,4.4-2.2,13.21-4.4,17.613-4.4,0-4.4-4.4-4.4-4.4a4.4,4.4,0,0,0-4.4,4.4v8.807a4.4,4.4,0,0,0,4.4,4.4s6.605,17.613,11.008,24.218c2.73,4.1,6.605,11.008,22.017,11.008s19.287-6.913,22.017-11.008c4.4-6.605,11.008-24.218,11.008-24.218a4.4,4.4,0,0,0,4.4-4.4V50.639a4.4,4.4,0,0,0-4.4-4.4V33.025s0-24.218-22.017-24.218c2.2-4.4-3-6.605-11.008-6.605C28.9,2.2,28.9,37.429,28.9,37.429" fill="none" stroke="#1471b4" stroke-linecap="round" stroke-linejoin="round" stroke-width="3.303"/>
                  </g>
                </g>
              </svg>    