
            <svg xmlns="http://www.w3.org/2000/svg" width="130" height="130" viewBox="0 0 130 130">
                <g id="Vector_Smart_Object" data-name="Vector Smart Object" transform="translate(-0.546 -0.546)">
                  <g id="Group_485" data-name="Group 485">
                    <path id="Path_515" data-name="Path 515" d="M78.655,111.429l2.185-4.278c13.852-.037,23.608,1.033,30.466,2.718" fill="none" stroke="#1471b4" stroke-linecap="round" stroke-linejoin="round" stroke-width="3.277"/>
                    <path id="Path_516" data-name="Path 516" d="M13.037,111.94c6.631-2.886,17.936-4.881,37.215-4.881l2.185,4.37" fill="none" stroke="#1471b4" stroke-linecap="round" stroke-linejoin="round" stroke-width="3.277"/>
                    <line id="Line_14379" data-name="Line 14379" y1="4.37" transform="translate(65.546 107.059)" fill="none" stroke="#1471b4" stroke-linecap="round" stroke-linejoin="round" stroke-width="3.277"/>
                    <path id="Path_517" data-name="Path 517" d="M89.58,41.513S80.84,32.773,80.84,24.034c-4.462,7.433-30.588,8.739-39.328,8.739,0,4.37-2.185,13.109-4.37,17.479-4.37,0-4.37-4.37-4.37-4.37a4.369,4.369,0,0,0-4.37,4.37v8.739a4.369,4.369,0,0,0,4.37,4.37S39.328,80.84,43.7,87.395c2.709,4.064,6.555,10.924,21.849,10.924s19.139-6.861,21.849-10.924c4.37-6.555,10.924-24.034,10.924-24.034a4.37,4.37,0,0,0,4.37-4.37V50.252a4.37,4.37,0,0,0-4.37-4.37V32.773s0-24.034-21.849-24.034c2.185-4.37-2.978-6.555-10.924-6.555C28.4,2.185,28.4,37.143,28.4,37.143" fill="none" stroke="#1471b4" stroke-linecap="round" stroke-linejoin="round" stroke-width="3.277"/>
                    <line id="Line_14380" data-name="Line 14380" x1="8.739" y1="6.555" transform="translate(37.143 50.252)" fill="none" stroke="#1471b4" stroke-linecap="round" stroke-linejoin="round" stroke-width="3.277"/>
                    <line id="Line_14381" data-name="Line 14381" x1="8.739" y2="6.555" transform="translate(85.21 50.252)" fill="none" stroke="#1471b4" stroke-linecap="round" stroke-linejoin="round" stroke-width="3.277"/>
                    <path id="Path_518" data-name="Path 518" d="M58.992,50.252H50.252a4.369,4.369,0,0,0-4.37,4.37v2.185a6.554,6.554,0,0,0,6.555,6.555h4.37a6.554,6.554,0,0,0,6.555-6.555V54.622A4.37,4.37,0,0,0,58.992,50.252Z" fill="none" stroke="#1471b4" stroke-linecap="round" stroke-linejoin="round" stroke-width="3.277"/>
                    <path id="Path_519" data-name="Path 519" d="M80.84,50.252H72.1a4.369,4.369,0,0,0-4.37,4.37v2.185a6.554,6.554,0,0,0,6.555,6.555h4.37a6.554,6.554,0,0,0,6.555-6.555V54.622A4.37,4.37,0,0,0,80.84,50.252Z" fill="none" stroke="#1471b4" stroke-linecap="round" stroke-linejoin="round" stroke-width="3.277"/>
                    <line id="Line_14382" data-name="Line 14382" x1="4.37" transform="translate(63.361 85.21)" fill="none" stroke="#1471b4" stroke-linecap="round" stroke-linejoin="round" stroke-width="3.277"/>
                    <path id="Path_520" data-name="Path 520" d="M74.286,78.655a21.772,21.772,0,0,1-8.74-2.185,21.772,21.772,0,0,1-8.739,2.185" fill="none" stroke="#1471b4" stroke-linecap="round" stroke-linejoin="round" stroke-width="3.277"/>
                    <path id="Path_521" data-name="Path 521" d="M2.185,128.908v-6.555a2.184,2.184,0,0,1,2.185-2.185H126.723a2.184,2.184,0,0,1,2.185,2.185v6.555" fill="none" stroke="#1471b4" stroke-linecap="round" stroke-linejoin="round" stroke-width="3.277"/>
                    <path id="Path_522" data-name="Path 522" d="M120.168,120.168V107.059L105.783,92.675" fill="none" stroke="#1471b4" stroke-linecap="round" stroke-linejoin="round" stroke-width="3.277"/>
                    <circle id="Ellipse_1" data-name="Ellipse 1" cx="4.37" cy="4.37" r="4.37" transform="translate(98.319 85.21)" fill="none" stroke="#1471b4" stroke-linecap="round" stroke-linejoin="round" stroke-width="3.277"/>
                  </g>
                </g>
              </svg>        
              