
              <svg xmlns="http://www.w3.org/2000/svg" width="137.462" height="129.985" viewBox="0 0 137.462 129.985">
                <g id="Vector_Smart_Object_copy" data-name="Vector Smart Object copy" transform="translate(-0.389 -9.97)">
                  <g id="Group_487" data-name="Group 487">
                    <path id="Path_531" data-name="Path 531" d="M73.7,133.514l6.91-51.5c16.123-.03,27.639,4.654,27.639,14.024v37.477" fill="none" stroke="#1471b5" stroke-linecap="round" stroke-linejoin="round" stroke-width="3.484"/>
                    <path id="Path_532" data-name="Path 532" d="M29.943,133.514V96.036c0-9.369,11.516-14.054,27.639-14.024l6.91,51.5" fill="none" stroke="#1471b5" stroke-linecap="round" stroke-linejoin="round" stroke-width="3.484"/>
                    <line id="Line_14387" data-name="Line 14387" y2="18.739" transform="translate(69.098 86.667)" fill="none" stroke="#1471b5" stroke-linecap="round" stroke-linejoin="round" stroke-width="3.514"/>
                    <ellipse id="Ellipse_3" data-name="Ellipse 3" cx="2.303" cy="2.342" rx="2.303" ry="2.342" transform="translate(66.795 81.982)" fill="none" stroke="#1471b5" stroke-linecap="round" stroke-linejoin="round" stroke-width="3.484"/>
                    <path id="Path_533" data-name="Path 533" d="M32.635,74.941l1.914-11.667a64.282,64.282,0,0,1,11.519.932" fill="none" stroke="#1471b5" stroke-linecap="round" stroke-linejoin="round" stroke-width="3.484"/>
                    <path id="Path_534" data-name="Path 534" d="M2.347,63.834a68.64,68.64,0,0,1,9.169-.56l6.91,42.132" fill="none" stroke="#1471b5" stroke-linecap="round" stroke-linejoin="round" stroke-width="3.484"/>
                    <line id="Line_14388" data-name="Line 14388" y2="18.739" transform="translate(23.033 67.928)" fill="none" stroke="#1471b5" stroke-linecap="round" stroke-linejoin="round" stroke-width="3.514"/>
                    <ellipse id="Ellipse_4" data-name="Ellipse 4" cx="2.303" cy="2.342" rx="2.303" ry="2.342" transform="translate(20.729 63.243)" fill="none" stroke="#1471b5" stroke-linecap="round" stroke-linejoin="round" stroke-width="3.484"/>
                    <path id="Path_535" data-name="Path 535" d="M105.545,74.941l-1.916-11.667a64.548,64.548,0,0,0-11.542.932" fill="none" stroke="#1471b5" stroke-linecap="round" stroke-linejoin="round" stroke-width="3.484"/>
                    <path id="Path_536" data-name="Path 536" d="M135.893,63.834a68.864,68.864,0,0,0-9.185-.56l-6.924,42.132" fill="none" stroke="#1471b5" stroke-linecap="round" stroke-linejoin="round" stroke-width="3.484"/>
                    <line id="Line_14389" data-name="Line 14389" y2="18.739" transform="translate(115.168 67.928)" fill="none" stroke="#1471b5" stroke-linecap="round" stroke-linejoin="round" stroke-width="3.514"/>
                    <path id="Path_537" data-name="Path 537" d="M112.861,65.586a2.308,2.308,0,1,1,2.308,2.342A2.326,2.326,0,0,1,112.861,65.586Z" fill="none" stroke="#1471b5" stroke-linecap="round" stroke-linejoin="round" stroke-width="3.484"/>
                    <line id="Line_14390" data-name="Line 14390" y1="28.108" transform="translate(43.762 110.09)" fill="none" stroke="#1471b5" stroke-linecap="round" stroke-linejoin="round" stroke-width="3.514"/>
                    <line id="Line_14391" data-name="Line 14391" y1="28.108" x2="0.144" transform="translate(94.434 110.09)" fill="none" stroke="#1471b5" stroke-linecap="round" stroke-linejoin="round" stroke-width="3.484"/>
                    <path id="Path_538" data-name="Path 538" d="M85.221,44.5V42.162A11.614,11.614,0,0,0,73.7,30.45H64.492A11.614,11.614,0,0,0,52.975,42.162V44.5a2.322,2.322,0,0,0-2.3,2.342v4.685a2.322,2.322,0,0,0,2.3,2.342,24.546,24.546,0,0,0,2.3,9.369c2.3,4.685,4.915,9.369,13.82,9.369s11.516-4.685,13.82-9.369a24.546,24.546,0,0,0,2.3-9.369,2.322,2.322,0,0,0,2.3-2.342V46.847A2.322,2.322,0,0,0,85.221,44.5Z" fill="none" stroke="#1471b5" stroke-linecap="round" stroke-linejoin="round" stroke-width="3.484"/>
                    <path id="Path_539" data-name="Path 539" d="M39.156,25.766V23.423A11.614,11.614,0,0,0,27.639,11.712H18.426A11.614,11.614,0,0,0,6.91,23.423v2.342a2.322,2.322,0,0,0-2.3,2.342v4.685a2.322,2.322,0,0,0,2.3,2.342,24.546,24.546,0,0,0,2.3,9.369c2.3,4.685,4.915,9.369,13.82,9.369s11.516-4.685,13.82-9.369a24.546,24.546,0,0,0,2.3-9.369,2.322,2.322,0,0,0,2.3-2.342V28.108A2.322,2.322,0,0,0,39.156,25.766Z" fill="none" stroke="#1471b5" stroke-linecap="round" stroke-linejoin="round" stroke-width="3.484"/>
                    <path id="Path_540" data-name="Path 540" d="M128.983,25.766V23.423a11.614,11.614,0,0,0-11.516-11.712h-9.213A11.614,11.614,0,0,0,96.738,23.423v2.342a2.322,2.322,0,0,0-2.3,2.342v4.685a2.322,2.322,0,0,0,2.3,2.342,24.546,24.546,0,0,0,2.3,9.369c2.3,4.685,4.915,9.369,13.82,9.369s11.516-4.685,13.82-9.369a24.546,24.546,0,0,0,2.3-9.369,2.322,2.322,0,0,0,2.3-2.342V28.108A2.322,2.322,0,0,0,128.983,25.766Z" fill="none" stroke="#1471b5" stroke-linecap="round" stroke-linejoin="round" stroke-width="3.484"/>
                    <line id="Line_14392" data-name="Line 14392" x1="2.303" transform="translate(73.705 49.189)" fill="none" stroke="#1471b5" stroke-linecap="round" stroke-linejoin="round" stroke-width="3.455"/>
                    <line id="Line_14393" data-name="Line 14393" x1="2.303" transform="translate(62.188 49.189)" fill="none" stroke="#1471b5" stroke-linecap="round" stroke-linejoin="round" stroke-width="3.455"/>
                    <line id="Line_14394" data-name="Line 14394" x1="2.303" transform="translate(117.467 30.45)" fill="none" stroke="#1471b5" stroke-linecap="round" stroke-linejoin="round" stroke-width="3.455"/>
                    <line id="Line_14395" data-name="Line 14395" x1="2.303" transform="translate(105.951 30.45)" fill="none" stroke="#1471b5" stroke-linecap="round" stroke-linejoin="round" stroke-width="3.455"/>
                    <line id="Line_14396" data-name="Line 14396" x1="2.303" transform="translate(27.639 30.45)" fill="none" stroke="#1471b5" stroke-linecap="round" stroke-linejoin="round" stroke-width="3.455"/>
                    <line id="Line_14397" data-name="Line 14397" x1="2.303" transform="translate(16.123 30.45)" fill="none" stroke="#1471b5" stroke-linecap="round" stroke-linejoin="round" stroke-width="3.455"/>
                  </g>
                </g>
              </svg>   