<svg xmlns="http://www.w3.org/2000/svg" width="139.005" height="130.367" viewBox="0 0 139.005 130.367">
    <g id="Vector_Smart_Object" data-name="Vector Smart Object" transform="translate(-0.582 -9.958)">
      <g id="Group_491" data-name="Group 491">
        <path id="Path_561" data-name="Path 561" d="M105.126,53.389,137.832,39.82,70.084,11.712,2.336,39.82,70.084,67.928l24.5-10.161" fill="none" stroke="#2190cc" stroke-linecap="round" stroke-linejoin="round" stroke-width="3.509"/>
        <path id="Path_562" data-name="Path 562" d="M105.126,62.686l32.706-13.5V46.847" fill="none" stroke="#2190cc" stroke-linecap="round" stroke-linejoin="round" stroke-width="3.509"/>
        <path id="Path_563" data-name="Path 563" d="M2.336,46.847v2.342L70.084,77.3l25.7-10.662" fill="none" stroke="#2190cc" stroke-linecap="round" stroke-linejoin="round" stroke-width="3.509"/>
        <ellipse id="Ellipse_11" data-name="Ellipse 11" cx="7.008" cy="4.685" rx="7.008" ry="4.685" transform="translate(63.076 35.135)" fill="none" stroke="#2190cc" stroke-linecap="round" stroke-linejoin="round" stroke-width="3.509"/>
        <path id="Path_564" data-name="Path 564" d="M75.776,42.544l29.35,10.988v61.243" fill="none" stroke="#2190cc" stroke-linecap="round" stroke-linejoin="round" stroke-width="3.509"/>
        <line id="Line_14419" data-name="Line 14419" y2="23.423" transform="translate(70.084 86.667)" fill="none" stroke="#2190cc" stroke-linecap="round" stroke-linejoin="round" stroke-width="3.514"/>
        <path id="Path_565" data-name="Path 565" d="M105.126,98.378a26.077,26.077,0,0,0,9.345-11.712V70.27" fill="none" stroke="#2190cc" stroke-linecap="round" stroke-linejoin="round" stroke-width="3.509"/>
        <path id="Path_566" data-name="Path 566" d="M25.7,70.27v16.4s9.345,23.423,44.387,23.423c10.879,0,19.493-2.342,25.7-5.415" fill="none" stroke="#2190cc" stroke-linecap="round" stroke-linejoin="round" stroke-width="3.509"/>
        <ellipse id="Ellipse_12" data-name="Ellipse 12" cx="4.672" cy="4.685" rx="4.672" ry="4.685" transform="translate(100.454 114.775)" fill="none" stroke="#2190cc" stroke-linecap="round" stroke-linejoin="round" stroke-width="3.509"/>
        <line id="Line_14420" data-name="Line 14420" y1="7.027" transform="translate(105.126 131.171)" fill="none" stroke="#2190cc" stroke-linecap="round" stroke-linejoin="round" stroke-width="3.514"/>
        <line id="Line_14421" data-name="Line 14421" y1="9.369" x2="2.336" transform="translate(95.782 128.829)" fill="none" stroke="#2190cc" stroke-linecap="round" stroke-linejoin="round" stroke-width="3.509"/>
        <line id="Line_14422" data-name="Line 14422" x1="2.336" y1="9.369" transform="translate(112.134 128.829)" fill="none" stroke="#2190cc" stroke-linecap="round" stroke-linejoin="round" stroke-width="3.509"/>
      </g>
    </g>
  </svg>  